<?xml version="1.0" standalone="no"?>
<!DOCTYPE svg PUBLIC "-//W3C//DTD SVG 20010904//EN"
 "http://www.w3.org/TR/2001/REC-SVG-20010904/DTD/svg10.dtd">
<svg version="1.0" xmlns="http://www.w3.org/2000/svg"
 width="72.000000pt" height="72.000000pt" viewBox="0 0 72.000000 72.000000"
 preserveAspectRatio="xMidYMid meet">

<g transform="translate(0.000000,72.000000) scale(0.100000,-0.100000)"
fill="#000000" stroke="none">
<path d="M346 638 c-3 -7 -17 -52 -32 -100 l-28 -88 -108 0 c-59 0 -108 -3
-108 -7 0 -5 22 -23 48 -40 26 -18 64 -48 85 -66 l39 -32 -27 -70 c-43 -114
-57 -157 -51 -162 2 -3 47 25 99 61 52 36 100 66 107 66 6 0 37 -19 68 -43 88
-67 123 -90 128 -84 5 4 -29 100 -62 175 -8 18 -14 38 -14 46 0 7 40 41 89 77
50 35 90 67 90 71 1 4 -52 9 -116 10 l-117 3 -32 95 c-30 90 -49 118 -58 88z"/>
</g>
</svg>
