<?xml version="1.0" encoding="UTF-8"?>
<!--Generator: Apple Native CoreSVG 175-->
<!DOCTYPE svg
PUBLIC "-//W3C//DTD SVG 1.1//EN"
       "http://www.w3.org/Graphics/SVG/1.1/DTD/svg11.dtd">
<svg version="1.1" xmlns="http://www.w3.org/2000/svg" xmlns:xlink="http://www.w3.org/1999/xlink" width="3300" height="2200">
 <!--glyph: "", point size: 100.0, font version: "17.1d1e1", template writer version: "65.1"-->
 <style>.multicolor-0:black {fill:#000000;opacity:1.0}
.multicolor-1:systemRedColor {fill:#FF3B30;opacity:1.0}
.multicolor-2:black {fill:#000000;opacity:1.0}

.SFSymbolsPreview000000 {fill:#000000;opacity:1.0}
.SFSymbolsPreviewFF3B30 {fill:#FF3B30;opacity:1.0}
</style>
 <g id="Notes">
  <rect height="2200" id="artboard" style="fill:white;opacity:1" width="3300" x="0" y="0"/>
  <line style="fill:none;stroke:black;opacity:1;stroke-width:0.5;" x1="263" x2="3036" y1="292" y2="292"/>
  <text style="stroke:none;fill:black;font-family:sans-serif;font-size:13;font-weight:bold;" transform="matrix(1 0 0 1 263 322)">Weight/Scale Variations</text>
  <text style="stroke:none;fill:black;font-family:sans-serif;font-size:13;text-anchor:middle;" transform="matrix(1 0 0 1 559.711 322)">Ultralight</text>
  <text style="stroke:none;fill:black;font-family:sans-serif;font-size:13;text-anchor:middle;" transform="matrix(1 0 0 1 856.422 322)">Thin</text>
  <text style="stroke:none;fill:black;font-family:sans-serif;font-size:13;text-anchor:middle;" transform="matrix(1 0 0 1 1153.13 322)">Light</text>
  <text style="stroke:none;fill:black;font-family:sans-serif;font-size:13;text-anchor:middle;" transform="matrix(1 0 0 1 1449.84 322)">Regular</text>
  <text style="stroke:none;fill:black;font-family:sans-serif;font-size:13;text-anchor:middle;" transform="matrix(1 0 0 1 1746.56 322)">Medium</text>
  <text style="stroke:none;fill:black;font-family:sans-serif;font-size:13;text-anchor:middle;" transform="matrix(1 0 0 1 2043.27 322)">Semibold</text>
  <text style="stroke:none;fill:black;font-family:sans-serif;font-size:13;text-anchor:middle;" transform="matrix(1 0 0 1 2339.98 322)">Bold</text>
  <text style="stroke:none;fill:black;font-family:sans-serif;font-size:13;text-anchor:middle;" transform="matrix(1 0 0 1 2636.69 322)">Heavy</text>
  <text style="stroke:none;fill:black;font-family:sans-serif;font-size:13;text-anchor:middle;" transform="matrix(1 0 0 1 2933.4 322)">Black</text>
  <line style="fill:none;stroke:black;opacity:1;stroke-width:0.5;" x1="263" x2="3036" y1="1903" y2="1903"/>
  <g transform="matrix(1 0 0 1 263 1933)">
   <path d="M9.24805 0.830078Q10.8691 0.830078 12.2949 0.214844Q13.7207-0.400391 14.8096-1.49414Q15.8984-2.58789 16.5186-4.01367Q17.1387-5.43945 17.1387-7.05078Q17.1387-8.66211 16.5186-10.0879Q15.8984-11.5137 14.8047-12.6074Q13.7109-13.7012 12.2852-14.3164Q10.8594-14.9316 9.23828-14.9316Q7.62695-14.9316 6.20117-14.3164Q4.77539-13.7012 3.69141-12.6074Q2.60742-11.5137 1.9873-10.0879Q1.36719-8.66211 1.36719-7.05078Q1.36719-5.43945 1.9873-4.01367Q2.60742-2.58789 3.69629-1.49414Q4.78516-0.400391 6.21094 0.214844Q7.63672 0.830078 9.24805 0.830078ZM9.24805-0.654297Q7.91992-0.654297 6.7627-1.14746Q5.60547-1.64062 4.73145-2.51953Q3.85742-3.39844 3.36426-4.56055Q2.87109-5.72266 2.87109-7.05078Q2.87109-8.37891 3.35938-9.54102Q3.84766-10.7031 4.72168-11.582Q5.5957-12.4609 6.75293-12.9541Q7.91016-13.4473 9.23828-13.4473Q10.5762-13.4473 11.7334-12.9541Q12.8906-12.4609 13.7695-11.582Q14.6484-10.7031 15.1465-9.54102Q15.6445-8.37891 15.6445-7.05078Q15.6445-5.72266 15.1514-4.56055Q14.6582-3.39844 13.7842-2.51953Q12.9102-1.64062 11.748-1.14746Q10.5859-0.654297 9.24805-0.654297ZM5.6543-7.05078Q5.6543-6.72852 5.85938-6.52832Q6.06445-6.32812 6.40625-6.32812L8.51562-6.32812L8.51562-4.20898Q8.51562-3.88672 8.71094-3.67676Q8.90625-3.4668 9.23828-3.4668Q9.56055-3.4668 9.77051-3.67676Q9.98047-3.88672 9.98047-4.20898L9.98047-6.32812L12.0898-6.32812Q12.4219-6.32812 12.627-6.52832Q12.832-6.72852 12.832-7.05078Q12.832-7.38281 12.627-7.58789Q12.4219-7.79297 12.0898-7.79297L9.98047-7.79297L9.98047-9.90234Q9.98047-10.2344 9.77051-10.4443Q9.56055-10.6543 9.23828-10.6543Q8.90625-10.6543 8.71094-10.4443Q8.51562-10.2344 8.51562-9.90234L8.51562-7.79297L6.40625-7.79297Q6.06445-7.79297 5.85938-7.58789Q5.6543-7.38281 5.6543-7.05078Z"/>
  </g>
  <g transform="matrix(1 0 0 1 281.867 1933)">
   <path d="M11.709 2.91016Q13.75 2.91016 15.5518 2.12891Q17.3535 1.34766 18.7305-0.0292969Q20.1074-1.40625 20.8887-3.20801Q21.6699-5.00977 21.6699-7.05078Q21.6699-9.0918 20.8887-10.8936Q20.1074-12.6953 18.7305-14.0723Q17.3535-15.4492 15.5469-16.2305Q13.7402-17.0117 11.6992-17.0117Q9.6582-17.0117 7.85645-16.2305Q6.05469-15.4492 4.68262-14.0723Q3.31055-12.6953 2.5293-10.8936Q1.74805-9.0918 1.74805-7.05078Q1.74805-5.00977 2.5293-3.20801Q3.31055-1.40625 4.6875-0.0292969Q6.06445 1.34766 7.86621 2.12891Q9.66797 2.91016 11.709 2.91016ZM11.709 1.25Q9.98047 1.25 8.47656 0.605469Q6.97266-0.0390625 5.83496-1.17676Q4.69727-2.31445 4.05762-3.81836Q3.41797-5.32227 3.41797-7.05078Q3.41797-8.7793 4.05762-10.2832Q4.69727-11.7871 5.83008-12.9297Q6.96289-14.0723 8.4668-14.7119Q9.9707-15.3516 11.6992-15.3516Q13.4277-15.3516 14.9316-14.7119Q16.4355-14.0723 17.5781-12.9297Q18.7207-11.7871 19.3652-10.2832Q20.0098-8.7793 20.0098-7.05078Q20.0098-5.32227 19.3701-3.81836Q18.7305-2.31445 17.5928-1.17676Q16.4551-0.0390625 14.9463 0.605469Q13.4375 1.25 11.709 1.25ZM7.17773-7.05078Q7.17773-6.69922 7.41211-6.47461Q7.64648-6.25 8.01758-6.25L10.8887-6.25L10.8887-3.36914Q10.8887-2.99805 11.1133-2.76855Q11.3379-2.53906 11.6895-2.53906Q12.0605-2.53906 12.29-2.76855Q12.5195-2.99805 12.5195-3.36914L12.5195-6.25L15.4004-6.25Q15.7715-6.25 16.001-6.47461Q16.2305-6.69922 16.2305-7.05078Q16.2305-7.42188 16.001-7.65137Q15.7715-7.88086 15.4004-7.88086L12.5195-7.88086L12.5195-10.752Q12.5195-11.1328 12.29-11.3623Q12.0605-11.5918 11.6895-11.5918Q11.3379-11.5918 11.1133-11.3574Q10.8887-11.123 10.8887-10.752L10.8887-7.88086L8.01758-7.88086Q7.63672-7.88086 7.40723-7.65137Q7.17773-7.42188 7.17773-7.05078Z"/>
  </g>
  <g transform="matrix(1 0 0 1 305.646 1933)">
   <path d="M14.9707 5.66406Q17.0605 5.66406 18.96 5.01465Q20.8594 4.36523 22.4512 3.19336Q24.043 2.02148 25.2197 0.429688Q26.3965-1.16211 27.0459-3.06641Q27.6953-4.9707 27.6953-7.05078Q27.6953-9.14062 27.0459-11.04Q26.3965-12.9395 25.2197-14.5312Q24.043-16.123 22.4512-17.2998Q20.8594-18.4766 18.9551-19.126Q17.0508-19.7754 14.9609-19.7754Q12.8711-19.7754 10.9717-19.126Q9.07227-18.4766 7.48535-17.2998Q5.89844-16.123 4.72168-14.5312Q3.54492-12.9395 2.90039-11.04Q2.25586-9.14062 2.25586-7.05078Q2.25586-4.9707 2.90527-3.06641Q3.55469-1.16211 4.72656 0.429688Q5.89844 2.02148 7.49023 3.19336Q9.08203 4.36523 10.9814 5.01465Q12.8809 5.66406 14.9707 5.66406ZM14.9707 3.84766Q13.1641 3.84766 11.5283 3.2959Q9.89258 2.74414 8.53516 1.74805Q7.17773 0.751953 6.17676-0.610352Q5.17578-1.97266 4.62891-3.6084Q4.08203-5.24414 4.08203-7.05078Q4.08203-8.86719 4.62891-10.5029Q5.17578-12.1387 6.17188-13.501Q7.16797-14.8633 8.52539-15.8594Q9.88281-16.8555 11.5186-17.4023Q13.1543-17.9492 14.9609-17.9492Q16.7773-17.9492 18.4131-17.4023Q20.0488-16.8555 21.4111-15.8594Q22.7734-14.8633 23.7695-13.501Q24.7656-12.1387 25.3174-10.5029Q25.8691-8.86719 25.8691-7.05078Q25.8789-5.24414 25.332-3.6084Q24.7852-1.97266 23.7842-0.610352Q22.7832 0.751953 21.4209 1.74805Q20.0586 2.74414 18.4229 3.2959Q16.7871 3.84766 14.9707 3.84766ZM9.19922-7.05078Q9.19922-6.66992 9.45801-6.4209Q9.7168-6.17188 10.1172-6.17188L14.0625-6.17188L14.0625-2.2168Q14.0625-1.81641 14.3115-1.55762Q14.5605-1.29883 14.9512-1.29883Q15.3516-1.29883 15.6104-1.55273Q15.8691-1.80664 15.8691-2.2168L15.8691-6.17188L19.8242-6.17188Q20.2246-6.17188 20.4785-6.4209Q20.7324-6.66992 20.7324-7.05078Q20.7324-7.46094 20.4785-7.71484Q20.2246-7.96875 19.8242-7.96875L15.8691-7.96875L15.8691-11.9141Q15.8691-12.3242 15.6104-12.583Q15.3516-12.8418 14.9512-12.8418Q14.5605-12.8418 14.3115-12.583Q14.0625-12.3242 14.0625-11.9141L14.0625-7.96875L10.1172-7.96875Q9.70703-7.96875 9.45312-7.71484Q9.19922-7.46094 9.19922-7.05078Z"/>
  </g>
  <text style="stroke:none;fill:black;font-family:sans-serif;font-size:13;font-weight:bold;" transform="matrix(1 0 0 1 263 1953)">Design Variations</text>
  <text style="stroke:none;fill:black;font-family:sans-serif;font-size:13;" transform="matrix(1 0 0 1 263 1971)">Symbols are supported in up to nine weights and three scales.</text>
  <text style="stroke:none;fill:black;font-family:sans-serif;font-size:13;" transform="matrix(1 0 0 1 263 1989)">For optimal layout with text and other symbols, vertically align</text>
  <text style="stroke:none;fill:black;font-family:sans-serif;font-size:13;" transform="matrix(1 0 0 1 263 2007)">symbols with the adjacent text.</text>
  <line style="fill:none;stroke:#00AEEF;stroke-width:0.5;opacity:1.0;" x1="776" x2="776" y1="1919" y2="1933"/>
  <g transform="matrix(1 0 0 1 776 1933)">
   <path d="M3.31055 0.15625Q3.70117 0.15625 3.91602-0.00976562Q4.13086-0.175781 4.26758-0.585938L5.52734-4.0332L11.2891-4.0332L12.5488-0.585938Q12.6855-0.175781 12.9004-0.00976562Q13.1152 0.15625 13.4961 0.15625Q13.8867 0.15625 14.1162-0.0585938Q14.3457-0.273438 14.3457-0.644531Q14.3457-0.869141 14.2383-1.17188L9.6582-13.3691Q9.48242-13.8184 9.17969-14.043Q8.87695-14.2676 8.4082-14.2676Q7.5-14.2676 7.17773-13.3789L2.59766-1.16211Q2.49023-0.859375 2.49023-0.634766Q2.49023-0.263672 2.70996-0.0537109Q2.92969 0.15625 3.31055 0.15625ZM6.00586-5.51758L8.37891-12.0898L8.42773-12.0898L10.8008-5.51758Z"/>
  </g>
  <line style="fill:none;stroke:#00AEEF;stroke-width:0.5;opacity:1.0;" x1="793.197" x2="793.197" y1="1919" y2="1933"/>
  <text style="stroke:none;fill:black;font-family:sans-serif;font-size:13;font-weight:bold;" transform="matrix(1 0 0 1 776 1953)">Margins</text>
  <text style="stroke:none;fill:black;font-family:sans-serif;font-size:13;" transform="matrix(1 0 0 1 776 1971)">Leading and trailing margins on the left and right side of each symbol</text>
  <text style="stroke:none;fill:black;font-family:sans-serif;font-size:13;" transform="matrix(1 0 0 1 776 1989)">can be adjusted by modifying the x-location of the margin guidelines.</text>
  <text style="stroke:none;fill:black;font-family:sans-serif;font-size:13;" transform="matrix(1 0 0 1 776 2007)">Modifications are automatically applied proportionally to all</text>
  <text style="stroke:none;fill:black;font-family:sans-serif;font-size:13;" transform="matrix(1 0 0 1 776 2025)">scales and weights.</text>
  <g transform="matrix(1 0 0 1 1289 1933)">
   <path d="M2.8418 1.86523L4.54102 3.57422Q5.18555 4.22852 5.90332 4.17969Q6.62109 4.13086 7.31445 3.35938L18.0078-8.42773L17.041-9.4043L6.42578 2.27539Q6.16211 2.57812 5.89355 2.61719Q5.625 2.65625 5.27344 2.30469L4.10156 1.14258Q3.75 0.791016 3.79395 0.522461Q3.83789 0.253906 4.14062-0.0195312L15.6152-10.8203L14.6387-11.7871L3.04688-0.898438Q2.30469-0.214844 2.25098 0.498047Q2.19727 1.21094 2.8418 1.86523ZM9.25781-16.3281Q8.94531-16.0254 8.90625-15.6348Q8.86719-15.2441 9.04297-14.9512Q9.21875-14.6777 9.55566-14.541Q9.89258-14.4043 10.3809-14.5215Q11.4746-14.7754 12.5977-14.7314Q13.7207-14.6875 14.7949-13.9844L14.209-12.5293Q13.9551-11.9043 14.0674-11.4404Q14.1797-10.9766 14.5801-10.5664L16.875-8.25195Q17.2363-7.88086 17.5781-7.82227Q17.9199-7.76367 18.3398-7.8418L19.4043-8.03711L20.0684-7.36328L20.0293-6.80664Q20-6.43555 20.1221-6.12305Q20.2441-5.81055 20.6055-5.44922L21.3672-4.70703Q21.7285-4.3457 22.1533-4.33105Q22.5781-4.31641 22.9297-4.66797L25.8398-7.58789Q26.1914-7.93945 26.1816-8.35449Q26.1719-8.76953 25.8105-9.13086L25.0391-9.89258Q24.6875-10.2539 24.3799-10.3857Q24.0723-10.5176 23.7109-10.4883L23.1348-10.4395L22.4902-11.0742L22.7344-12.1973Q22.832-12.6172 22.6953-12.9834Q22.5586-13.3496 22.1191-13.7891L19.9219-15.9766Q18.6719-17.2168 17.2607-17.8369Q15.8496-18.457 14.4189-18.4814Q12.9883-18.5059 11.665-17.959Q10.3418-17.4121 9.25781-16.3281ZM10.752-15.957Q11.6602-16.6211 12.7002-16.9043Q13.7402-17.1875 14.8047-17.085Q15.8691-16.9824 16.8701-16.5137Q17.8711-16.0449 18.7012-15.2051L21.1328-12.793Q21.3086-12.6172 21.3525-12.4512Q21.3965-12.2852 21.3379-12.0312L21.0156-10.5469L22.5195-9.0625L23.5059-9.12109Q23.6914-9.13086 23.7891-9.09668Q23.8867-9.0625 24.0332-8.91602L24.6094-8.33984L22.168-5.89844L21.5918-6.47461Q21.4453-6.62109 21.4062-6.71875Q21.3672-6.81641 21.377-7.01172L21.4453-7.98828L19.9512-9.47266L18.4277-9.21875Q18.1836-9.16992 18.042-9.2041Q17.9004-9.23828 17.7148-9.41406L15.7129-11.416Q15.5176-11.5918 15.4932-11.7529Q15.4688-11.9141 15.5859-12.1875L16.4648-14.2773Q15.293-15.3711 13.8281-15.791Q12.3633-16.2109 10.8398-15.7617Q10.7227-15.7324 10.6885-15.8057Q10.6543-15.8789 10.752-15.957Z"/>
  </g>
  <text style="stroke:none;fill:black;font-family:sans-serif;font-size:13;font-weight:bold;" transform="matrix(1 0 0 1 1289 1953)">Exporting</text>
  <text style="stroke:none;fill:black;font-family:sans-serif;font-size:13;" transform="matrix(1 0 0 1 1289 1971)">Symbols should be outlined when exporting to ensure the</text>
  <text style="stroke:none;fill:black;font-family:sans-serif;font-size:13;" transform="matrix(1 0 0 1 1289 1989)">design is preserved when submitting to Xcode.</text>
  <text id="template-version" style="stroke:none;fill:black;font-family:sans-serif;font-size:13;text-anchor:end;" transform="matrix(1 0 0 1 3036 1933)">Template v.3.0</text>
  <text style="stroke:none;fill:black;font-family:sans-serif;font-size:13;text-anchor:end;" transform="matrix(1 0 0 1 3036 1951)">Requires Xcode 13 or greater</text>
  <text id="descriptive-name" style="stroke:none;fill:black;font-family:sans-serif;font-size:13;text-anchor:end;" transform="matrix(1 0 0 1 3036 1969)">Generated from custom.ladybug.fill</text>
  <text style="stroke:none;fill:black;font-family:sans-serif;font-size:13;text-anchor:end;" transform="matrix(1 0 0 1 3036 1987)">Typeset at 100 points</text>
  <text style="stroke:none;fill:black;font-family:sans-serif;font-size:13;" transform="matrix(1 0 0 1 263 726)">Small</text>
  <text style="stroke:none;fill:black;font-family:sans-serif;font-size:13;" transform="matrix(1 0 0 1 263 1156)">Medium</text>
  <text style="stroke:none;fill:black;font-family:sans-serif;font-size:13;" transform="matrix(1 0 0 1 263 1586)">Large</text>
 </g>
 <g id="Guides">
  <g id="H-reference" style="fill:#27AAE1;stroke:none;" transform="matrix(1 0 0 1 339 696)">
   <path d="M0.993347 0L3.6377 0L29.3282-67.1326L30.0301-67.1326L30.0301-70.459L28.1227-70.459ZM11.6882-24.4797L46.9818-24.4797L46.2311-26.7288L12.4382-26.7288ZM55.1193 0L57.7637 0L30.6381-70.459L29.4327-70.459L29.4327-67.1326Z"/>
  </g>
  <line id="Baseline-S" style="fill:none;stroke:#27AAE1;opacity:1;stroke-width:0.5;" x1="263" x2="3036" y1="696" y2="696"/>
  <line id="Capline-S" style="fill:none;stroke:#27AAE1;opacity:1;stroke-width:0.5;" x1="263" x2="3036" y1="625.541" y2="625.541"/>
  <g id="H-reference" style="fill:#27AAE1;stroke:none;" transform="matrix(1 0 0 1 339 1126)">
   <path d="M0.993347 0L3.6377 0L29.3282-67.1326L30.0301-67.1326L30.0301-70.459L28.1227-70.459ZM11.6882-24.4797L46.9818-24.4797L46.2311-26.7288L12.4382-26.7288ZM55.1193 0L57.7637 0L30.6381-70.459L29.4327-70.459L29.4327-67.1326Z"/>
  </g>
  <line id="Baseline-M" style="fill:none;stroke:#27AAE1;opacity:1;stroke-width:0.5;" x1="263" x2="3036" y1="1126" y2="1126"/>
  <line id="Capline-M" style="fill:none;stroke:#27AAE1;opacity:1;stroke-width:0.5;" x1="263" x2="3036" y1="1055.54" y2="1055.54"/>
  <g id="H-reference" style="fill:#27AAE1;stroke:none;" transform="matrix(1 0 0 1 339 1556)">
   <path d="M0.993347 0L3.6377 0L29.3282-67.1326L30.0301-67.1326L30.0301-70.459L28.1227-70.459ZM11.6882-24.4797L46.9818-24.4797L46.2311-26.7288L12.4382-26.7288ZM55.1193 0L57.7637 0L30.6381-70.459L29.4327-70.459L29.4327-67.1326Z"/>
  </g>
  <line id="Baseline-L" style="fill:none;stroke:#27AAE1;opacity:1;stroke-width:0.5;" x1="263" x2="3036" y1="1556" y2="1556"/>
  <line id="Capline-L" style="fill:none;stroke:#27AAE1;opacity:1;stroke-width:0.5;" x1="263" x2="3036" y1="1485.54" y2="1485.54"/>
  <line id="left-margin-Ultralight-S" style="fill:none;stroke:#00AEEF;stroke-width:0.5;opacity:1.0;" x1="511.513" x2="511.513" y1="600.784" y2="720.121"/>
  <line id="right-margin-Ultralight-S" style="fill:none;stroke:#00AEEF;stroke-width:0.5;opacity:1.0;" x1="607.909" x2="607.909" y1="600.784" y2="720.121"/>
  <line id="left-margin-Regular-S" style="fill:none;stroke:#00AEEF;stroke-width:0.5;opacity:1.0;" x1="1398.01" x2="1398.01" y1="600.784" y2="720.121"/>
  <line id="right-margin-Regular-S" style="fill:none;stroke:#00AEEF;stroke-width:0.5;opacity:1.0;" x1="1501.68" x2="1501.68" y1="600.784" y2="720.121"/>
  <line id="left-margin-Black-S" style="fill:none;stroke:#00AEEF;stroke-width:0.5;opacity:1.0;" x1="2877.69" x2="2877.69" y1="600.784" y2="720.121"/>
  <line id="right-margin-Black-S" style="fill:none;stroke:#00AEEF;stroke-width:0.5;opacity:1.0;" x1="2989.11" x2="2989.11" y1="600.784" y2="720.121"/>
 </g>
 <g id="Symbols">
  <g id="Black-S" transform="matrix(1 0 0 1 2877.69 696)">
   <path class="multicolor-0:black SFSymbolsPreview000000" d="M77.2949-48.153L83.6426-40.5358L95.8984-49.862Q97.8027-51.3268 98.0713-53.4752Q98.3398-55.6237 96.9238-57.235Q95.5566-58.944 93.5059-58.9684Q91.4551-58.9928 89.502-57.4791ZM34.1309-48.153L21.9238-57.4791Q19.9707-58.9928 17.9443-58.9684Q15.918-58.944 14.502-57.235Q13.1348-55.6237 13.3789-53.4752Q13.623-51.3268 15.5273-49.862L27.7832-40.5358ZM85.2051-8.35806L78.7598-0.594383L87.3535 6.68101Q89.209 8.24351 91.333 8.17026Q93.457 8.09702 94.8242 6.43687Q96.2402 4.72788 95.9473 2.60386Q95.6543 0.479835 93.7988-1.08267ZM24.6582-31.3073L13.1836-31.2584Q10.791-31.2584 9.30176-29.8424Q7.8125-28.4264 7.8125-26.1803Q7.8125-23.9342 9.30176-22.5426Q10.791-21.151 13.1836-21.151L24.6582-21.1999ZM26.2207-8.35806L17.627-1.08267Q15.8203 0.479835 15.5273 2.60386Q15.2344 4.72788 16.6016 6.43687Q18.0176 8.09702 20.1416 8.17026Q22.2656 8.24351 24.0723 6.68101L32.666-0.594383ZM86.7676-31.3073L86.7676-21.1999L98.2422-21.151Q100.635-21.151 102.124-22.5426Q103.613-23.9342 103.613-26.1803Q103.613-28.4264 102.124-29.8424Q100.635-31.2584 98.2422-31.2584Z"/>
   <path class="multicolor-1:systemRedColor SFSymbolsPreviewFF3B30" d="M18.2617-23.9342Q18.2617-14.0221 21.8018-6.20962Q25.3418 1.60288 31.8359 6.68101Q38.3301 11.7591 47.1191 13.4681Q49.0723 13.8587 50.4395 12.9798Q51.8066 12.1009 51.8066 10.2943L51.8066-31.6491Q51.8066-33.3092 52.9297-34.4323Q54.0527-35.5553 55.7129-35.5553Q57.373-35.5553 58.4961-34.4323Q59.6191-33.3092 59.6191-31.6491L59.6191 10.2943Q59.6191 12.1009 60.9863 12.9798Q62.3535 13.8587 64.3066 13.4681Q73.0957 11.7591 79.5898 6.68101Q86.084 1.60288 89.624-6.20962Q93.1641-14.0221 93.1641-23.9342Q93.1641-28.2799 92.1387-33.1139Q91.1133-37.9479 88.9404-42.2692Q86.7676-46.5905 83.2031-49.276Q82.2754-49.9596 81.1035-49.984Q79.9316-50.0084 79.3945-49.6667Q74.6582-46.8346 68.75-45.5163Q62.8418-44.1979 55.7129-44.1979Q48.584-44.1979 42.6758-45.5163Q36.7676-46.8346 32.0312-49.6667Q31.4941-50.0084 30.3223-49.984Q29.1504-49.9596 28.2227-49.276Q24.6582-46.5905 22.4854-42.2692Q20.3125-37.9479 19.2871-33.1139Q18.2617-28.2799 18.2617-23.9342Z"/>
   <path class="multicolor-2:black SFSymbolsPreview000000" d="M32.5195-58.7487Q32.5195-57.0885 33.374-55.8434Q34.2285-54.5983 37.207-52.8405Q40.4785-50.9362 45.3613-50.0084Q50.2441-49.0807 55.7129-49.0807Q61.2305-49.0807 66.0889-50.0084Q70.9473-50.9362 74.2188-52.8405Q77.2461-54.5983 78.0762-55.8434Q78.9062-57.0885 78.9062-58.7487Q78.9062-63.6315 76.1963-67.6598Q73.4863-71.6881 68.3105-74.0807Q63.1348-76.4733 55.7129-76.4733Q48.3398-76.4733 43.1396-74.0807Q37.9395-71.6881 35.2295-67.6598Q32.5195-63.6315 32.5195-58.7487ZM37.9395-75.5456L39.9902-75.0084Q41.4551-74.6667 41.2109-73.8366L40.2832-70.3698L50.3418-70.4674L50.6348-73.5436Q51.0254-77.3034 49.2188-80.0133Q47.4121-82.7233 43.75-83.944L41.0645-84.8229Q38.6719-85.6041 36.9873-84.5543Q35.3027-83.5045 34.668-81.6247Q34.0332-79.7448 34.79-77.9625Q35.5469-76.1803 37.9395-75.5456ZM73.3887-75.5456Q75.8301-76.1803 76.5625-77.9625Q77.2949-79.7448 76.6602-81.6247Q76.0254-83.5045 74.3652-84.5543Q72.7051-85.6041 70.2637-84.8229L67.5781-83.944Q63.916-82.7233 62.1338-80.0133Q60.3516-77.3034 60.6934-73.5436L60.9863-70.4674L71.0449-70.3698L70.1172-73.8366Q69.873-74.6667 71.3379-75.0084ZM34.7168-12.2155Q32.0312-12.2155 30.1514-14.0954Q28.2715-15.9752 28.2715-18.6608Q28.2715-21.2487 30.1514-23.1041Q32.0312-24.9596 34.7168-24.9596Q37.3535-24.9596 39.2334-23.1041Q41.1133-21.2487 41.1133-18.6608Q41.1133-15.9752 39.2334-14.0954Q37.3535-12.2155 34.7168-12.2155ZM76.709-12.2155Q74.0723-12.2155 72.1924-14.0954Q70.3125-15.9752 70.3125-18.6608Q70.3125-21.2487 72.1924-23.1041Q74.0723-24.9596 76.709-24.9596Q79.3945-24.9596 81.2744-23.1041Q83.1543-21.2487 83.1543-18.6608Q83.1543-15.9752 81.2744-14.0954Q79.3945-12.2155 76.709-12.2155ZM38.2812-29.5983Q35.9863-29.5983 34.3262-31.2829Q32.666-32.9674 32.666-35.2624Q32.666-37.5573 34.3262-39.2418Q35.9863-40.9264 38.2812-40.9264Q40.625-40.9264 42.2852-39.2418Q43.9453-37.5573 43.9453-35.2624Q43.9453-32.9674 42.2852-31.2829Q40.625-29.5983 38.2812-29.5983ZM73.1445-29.5983Q70.8008-29.5983 69.1406-31.2829Q67.4805-32.9674 67.4805-35.2624Q67.4805-37.5573 69.1406-39.2418Q70.8008-40.9264 73.1445-40.9264Q75.4395-40.9264 77.0996-39.2418Q78.7598-37.5573 78.7598-35.2624Q78.7598-32.9674 77.0996-31.2829Q75.4395-29.5983 73.1445-29.5983ZM71.6797 2.04233Q69.6289 2.04233 68.1641 0.601901Q66.6992-0.838524 66.6992-2.88931Q66.6992-4.94009 68.1641-6.42935Q69.6289-7.9186 71.6797-7.9186Q73.7305-7.9186 75.2197-6.42935Q76.709-4.94009 76.709-2.88931Q76.709-0.838524 75.2197 0.601901Q73.7305 2.04233 71.6797 2.04233ZM39.7461 2.04233Q37.6953 2.04233 36.2061 0.601901Q34.7168-0.838524 34.7168-2.88931Q34.7168-4.94009 36.2061-6.42935Q37.6953-7.9186 39.7461-7.9186Q41.7969-7.9186 43.2617-6.42935Q44.7266-4.94009 44.7266-2.88931Q44.7266-0.838524 43.2617 0.601901Q41.7969 2.04233 39.7461 2.04233Z"/>
  </g>
  <g id="Regular-S" transform="matrix(1 0 0 1 1398.01 696)">
   <path class="multicolor-0:black SFSymbolsPreview000000" d="M75.7324-47.8106L79.9316-42.7324L87.0605-48.7871Q88.2324-49.8125 88.5254-51.2285Q88.8184-52.6446 87.8418-53.8164Q86.8164-54.9883 85.4248-54.9395Q84.0332-54.8906 82.8125-53.8653ZM27.9297-47.8106L20.8496-53.8653Q19.6289-54.8906 18.2373-54.9395Q16.8457-54.9883 15.8691-53.8164Q14.8438-52.6446 15.1367-51.2285Q15.4297-49.8125 16.6016-48.7871L23.7305-42.7324ZM79.9805-7.47851L75.7812-2.44922L82.8613 3.60547Q84.082 4.63086 85.4736 4.67969Q86.8652 4.72852 87.8418 3.55664Q88.8672 2.38477 88.5742 0.96875Q88.2812-0.447264 87.1094-1.42383ZM20.8984-29.8906L11.377-29.8418Q9.76562-29.8418 8.78906-28.9385Q7.8125-28.0352 7.8125-26.5215Q7.8125-25.0567 8.78906-24.1533Q9.76562-23.25 11.377-23.25L20.8984-23.2988ZM23.6816-7.47851L16.5527-1.42383Q15.3809-0.447264 15.1123 0.96875Q14.8438 2.38477 15.8203 3.55664Q16.7969 4.72852 18.2129 4.67969Q19.6289 4.63086 20.8008 3.60547L27.8809-2.44922ZM82.7637-29.8906L82.7637-23.2988L92.2852-23.25Q93.8965-23.25 94.873-24.1533Q95.8496-25.0567 95.8496-26.5215Q95.8496-28.0352 94.873-28.9385Q93.8965-29.8418 92.2852-29.8418Z"/>
   <path class="multicolor-1:systemRedColor SFSymbolsPreviewFF3B30" d="M17.7246-24.4219Q17.7246-15.1934 21.0938-7.86914Q24.4629-0.544921 30.5908 4.09375Q36.7188 8.73242 44.9707 9.85542Q46.9238 10.0996 47.9736 9.41602Q49.0234 8.73242 49.0234 7.21875L49.0234-36.1406Q49.0234-37.3125 49.8535-38.1426Q50.6836-38.9727 51.8555-38.9727Q53.0273-38.9727 53.8574-38.1426Q54.6875-37.3125 54.6875-36.1406L54.6875 7.21875Q54.6875 8.73242 55.7129 9.41602Q56.7383 10.0996 58.7402 9.85542Q66.9922 8.73242 73.0957 4.09375Q79.1992-0.544921 82.5684-7.86914Q85.9375-15.1934 85.9375-24.4219Q85.9375-28.4746 84.9365-33.211Q83.9355-37.9473 82.1289-42.0733Q80.3223-46.1992 77.8809-48.4453Q75.7324-50.3496 74.4385-50.5938Q73.1445-50.8379 71.9727-50.3496Q67.9688-48.6895 62.7441-47.542Q57.5195-46.3946 51.8555-46.3946Q46.1426-46.3946 40.9424-47.542Q35.7422-48.6895 31.6895-50.3496Q30.5176-50.8379 29.2236-50.5938Q27.9297-50.3496 25.8301-48.4453Q23.3398-46.1992 21.5332-42.0733Q19.7266-37.9473 18.7256-33.211Q17.7246-28.4746 17.7246-24.4219Z"/>
   <path class="multicolor-2:black SFSymbolsPreview000000" d="M31.2012-59.2852Q31.2012-57.6738 31.9092-56.4043Q32.6172-55.1348 34.5215-54.3047Q37.7441-52.8399 42.334-52.0098Q46.9238-51.1797 51.8555-51.1797Q56.7871-51.1797 61.377-52.0098Q65.9668-52.8399 69.1406-54.3047Q71.0449-55.1348 71.7529-56.4043Q72.4609-57.6738 72.4609-59.2852Q72.4609-63.3867 69.9463-66.7803Q67.4316-70.1738 62.793-72.2246Q58.1543-74.2754 51.8555-74.2754Q45.5566-74.2754 40.918-72.2246Q36.2793-70.1738 33.7402-66.7803Q31.2012-63.3867 31.2012-59.2852ZM35.2539-75.3008L37.3535-74.666Q39.8926-73.9336 39.4043-71.9317L38.9648-70.2227L45.3613-70.2715L45.5566-72.0781Q45.8984-75.1055 44.4824-77.2539Q43.0664-79.4024 40.0391-80.4278L37.3535-81.3555Q35.7422-81.8926 34.6191-81.209Q33.4961-80.5254 33.1055-79.3047Q32.7148-78.084 33.1787-76.9121Q33.6426-75.7403 35.2539-75.3008ZM68.4082-75.3008Q70.0195-75.7403 70.5078-76.9121Q70.9961-78.084 70.5811-79.3047Q70.166-80.5254 69.043-81.209Q67.9199-81.8926 66.3086-81.3555L63.623-80.4278Q60.5957-79.4024 59.2041-77.2539Q57.8125-75.1055 58.1055-72.0781L58.3496-70.2715L64.6973-70.2227L64.2578-71.9317Q63.7695-73.9336 66.3086-74.666ZM32.4707-15.2422Q30.0781-15.2422 28.3691-16.9268Q26.6602-18.6113 26.6602-21.1016Q26.6602-23.4453 28.3691-25.1299Q30.0781-26.8145 32.4707-26.8145Q34.8633-26.8145 36.5723-25.1299Q38.2812-23.4453 38.2812-21.1016Q38.2812-18.6113 36.5723-16.9268Q34.8633-15.2422 32.4707-15.2422ZM71.1914-15.2422Q68.8477-15.2422 67.1387-16.9268Q65.4297-18.6113 65.4297-21.1016Q65.4297-23.4453 67.1387-25.1299Q68.8477-26.8145 71.1914-26.8145Q73.6328-26.8145 75.3174-25.1299Q77.002-23.4453 77.002-21.1016Q77.002-18.6113 75.3174-16.9268Q73.6328-15.2422 71.1914-15.2422ZM36.4746-31.8926Q34.4238-31.8926 32.9834-33.3574Q31.543-34.8223 31.543-36.8731Q31.543-38.875 32.9834-40.3399Q34.4238-41.8047 36.4746-41.8047Q38.5254-41.8047 39.9658-40.3399Q41.4062-38.875 41.4062-36.8731Q41.4062-34.8223 39.9658-33.3574Q38.5254-31.8926 36.4746-31.8926ZM67.2363-31.8926Q65.1855-31.8926 63.7207-33.3574Q62.2559-34.8223 62.2559-36.8731Q62.2559-38.875 63.7207-40.3399Q65.1855-41.8047 67.2363-41.8047Q69.2383-41.8047 70.6787-40.3399Q72.1191-38.875 72.1191-36.8731Q72.1191-34.8223 70.6787-33.3574Q69.2383-31.8926 67.2363-31.8926ZM66.3086-0.984374Q64.502-0.984374 63.2568-2.22949Q62.0117-3.47461 62.0117-5.23242Q62.0117-7.03906 63.2568-8.28418Q64.502-9.5293 66.3086-9.5293Q68.0664-9.5293 69.2871-8.28418Q70.5078-7.03906 70.5078-5.23242Q70.5078-3.47461 69.2871-2.22949Q68.0664-0.984374 66.3086-0.984374ZM37.4023-0.984374Q35.6445-0.984374 34.3994-2.22949Q33.1543-3.47461 33.1543-5.23242Q33.1543-7.03906 34.3994-8.28418Q35.6445-9.5293 37.4023-9.5293Q39.1602-9.5293 40.4053-8.28418Q41.6504-7.03906 41.6504-5.23242Q41.6504-3.47461 40.4053-2.22949Q39.1602-0.984374 37.4023-0.984374Z"/>
  </g>
  <g id="Ultralight-S" transform="matrix(1 0 0 1 511.513 696)">
   <path class="multicolor-0:black SFSymbolsPreview000000" d="M71.7361-47.5192L73.1201-45.3929L80.6122-51.4476Q81.0577-51.8367 81.1462-52.2994Q81.2347-52.7621 80.9395-53.2977Q80.5496-53.7432 80.0209-53.7627Q79.4922-53.7821 79.0436-53.4373ZM24.6147-47.5192L17.3073-53.4373Q16.8587-53.7821 16.33-53.7627Q15.8012-53.7432 15.4602-53.2977Q15.1161-52.7621 15.2275-52.2994Q15.3389-51.8367 15.7845-51.4476L23.2765-45.3929ZM74.0318-6.46086L72.5121-4.42839L79.5464 1.21737Q80.0407 1.56222 80.547 1.54276Q81.0532 1.52331 81.3934 1.07775Q81.7833 0.587182 81.7173 0.124841Q81.6513-0.3375 81.1607-0.723548ZM17.9016-28.7364L9.06143-28.7783Q8.4938-28.7783 8.15315-28.4426Q7.8125-28.1069 7.8125-27.5469Q7.8125-26.945 8.15315-26.6093Q8.4938-26.2736 9.10645-26.2736L17.9016-26.2767ZM22.319-6.46086L15.1901-0.723548Q14.7453-0.3375 14.6584 0.124841Q14.5714 0.587182 15.0032 1.07775Q15.2985 1.52331 15.8062 1.54276Q16.3139 1.56222 16.8045 1.21737L23.8396-4.42839ZM78.495-28.7364L78.495-26.2767L87.2902-26.2736Q87.8571-26.2736 88.2206-26.6093Q88.5841-26.945 88.5841-27.5469Q88.5841-28.1069 88.2431-28.4426Q87.9021-28.7783 87.3352-28.7783Z"/>
   <path class="multicolor-1:systemRedColor SFSymbolsPreviewFF3B30" d="M16.9075-25.9471Q16.9075-16.582 20.2991-9.43937Q23.6908-2.29673 29.7962 1.9784Q35.9016 6.25353 43.8812 6.9684Q45.7428 7.07598 46.4294 6.41527Q47.1161 5.75457 47.1161 4.60405L47.1161-39.8455Q47.1161-40.2903 47.4239-40.5982Q47.7318-40.906 48.1773-40.906Q48.6229-40.906 48.9307-40.5982Q49.2386-40.2903 49.2386-39.8455L49.2386 4.60405Q49.2386 5.75457 49.9458 6.41527Q50.6531 7.07598 52.4734 6.9684Q60.4988 6.25353 66.5794 1.9784Q72.6601-2.29673 76.0746-9.43937Q79.4891-16.582 79.4891-25.9471Q79.4891-30.3172 78.511-34.645Q77.533-38.9727 75.7942-42.6673Q74.0555-46.3618 71.7506-48.8803Q71.0098-49.6951 70.1244-49.7801Q69.239-49.8652 68.6127-49.5585Q63.3827-46.4907 58.1806-45.5249Q52.9785-44.559 48.1773-44.559Q43.4181-44.559 38.195-45.5249Q32.972-46.4907 27.739-49.5585Q27.1118-49.8652 26.2264-49.7801Q25.341-49.6951 24.604-48.8803Q22.3412-46.3618 20.5799-42.6673Q18.8187-38.9727 17.8631-34.645Q16.9075-30.3172 16.9075-25.9471Z"/>
   <path class="multicolor-2:black SFSymbolsPreview000000" d="M29.3396-54.7251Q29.3396-53.3412 29.9339-52.4348Q30.5283-51.5284 32.0694-50.6983Q35.0197-49.2793 39.2689-48.4263Q43.5181-47.5733 48.1773-47.5733Q52.8366-47.5733 57.1087-48.4263Q61.3808-49.2793 64.3272-50.6983Q65.8226-51.5284 66.4173-52.4348Q67.012-53.3412 67.012-54.7251Q67.012-59.3264 64.5653-62.8562Q62.1185-66.3859 57.8659-68.3913Q53.6133-70.3967 48.1773-70.3967Q42.7864-70.3967 38.5113-68.3913Q34.2361-66.3859 31.7879-62.8562Q29.3396-59.3264 29.3396-54.7251ZM30.1682-75.2818L34.9014-72.8305Q36.9865-71.7807 36.7249-69.6421L36.2854-66.7529L38.414-66.7559L38.8817-69.4255Q39.2235-71.181 38.443-72.444Q37.6625-73.7071 35.8162-74.6874L31.0867-77.2494Q30.5656-77.5141 30.1918-77.3528Q29.818-77.1914 29.6318-76.7882Q29.4456-76.385 29.546-75.9394Q29.6463-75.4939 30.1682-75.2818ZM66.2285-75.2818Q66.7046-75.4939 66.8068-75.9394Q66.909-76.385 66.7439-76.7882Q66.5787-77.1914 66.1823-77.3528Q65.786-77.5141 65.3099-77.2494L60.5804-74.6874Q58.6884-73.7071 57.9327-72.444Q57.177-71.181 57.515-69.4255L57.9865-66.7559L60.1112-66.7529L59.6718-69.6421Q59.3651-71.7807 61.4952-72.8305ZM30.8357-16.6308Q28.5797-16.6308 26.9386-18.2475Q25.2975-19.8641 25.2975-22.2178Q25.2975-24.4258 26.9386-26.0646Q28.5797-27.7033 30.8357-27.7033Q33.1375-27.7033 34.7557-26.0646Q36.3739-24.4258 36.3739-22.2178Q36.3739-19.8641 34.7557-18.2475Q33.1375-16.6308 30.8357-16.6308ZM65.5151-16.6308Q63.2622-16.6308 61.6215-18.2475Q59.9808-19.8641 59.9808-22.2178Q59.9808-24.4258 61.6215-26.0646Q63.2622-27.7033 65.5151-27.7033Q67.8207-27.7033 69.437-26.0646Q71.0533-24.4258 71.0533-22.2178Q71.0533-19.8641 69.437-18.2475Q67.8207-16.6308 65.5151-16.6308ZM35.3851-32.3275Q33.4702-32.3275 32.0751-33.7699Q30.6801-35.2122 30.6801-37.1264Q30.6801-39.0834 32.0751-40.4574Q33.4702-41.8315 35.3851-41.8315Q37.3901-41.8315 38.7623-40.4574Q40.1344-39.0834 40.1344-37.1264Q40.1344-35.1664 38.7623-33.747Q37.3901-32.3275 35.3851-32.3275ZM60.9695-32.3275Q59.0096-32.3275 57.613-33.747Q56.2164-35.1664 56.2164-37.1264Q56.2164-39.0834 57.613-40.4574Q59.0096-41.8315 60.9695-41.8315Q62.9265-41.8315 64.3215-40.4574Q65.7166-39.0834 65.7166-37.1264Q65.7166-35.2122 64.3215-33.7699Q62.9265-32.3275 60.9695-32.3275ZM60.9047-3.64485Q59.2346-3.64485 58.0574-4.84457Q56.8802-6.04429 56.8802-7.71131Q56.8802-9.38139 58.0574-10.5811Q59.2346-11.7808 60.9047-11.7808Q62.6175-11.7808 63.7928-10.5811Q64.9681-9.38139 64.9681-7.71131Q64.9681-6.04429 63.7928-4.84457Q62.6175-3.64485 60.9047-3.64485ZM35.45-3.64485Q33.783-3.64485 32.5832-4.84457Q31.3835-6.04429 31.3835-7.71131Q31.3835-9.38139 32.5832-10.5811Q33.783-11.7808 35.45-11.7808Q37.162-11.7808 38.3392-10.5811Q39.5164-9.38139 39.5164-7.71131Q39.5164-6.04429 38.3392-4.84457Q37.162-3.64485 35.45-3.64485Z"/>
  </g>
 </g>
</svg>
