<?xml version="1.0" encoding="UTF-8"?>
<!--Generator: Apple Native CoreSVG 341-->
<!DOCTYPE svg
PUBLIC "-//W3C//DTD SVG 1.1//EN"
       "http://www.w3.org/Graphics/SVG/1.1/DTD/svg11.dtd">
<svg version="1.1" xmlns="http://www.w3.org/2000/svg" xmlns:xlink="http://www.w3.org/1999/xlink" viewBox="0 0 3300 2200">
 <!--glyph: "", point size: 100.0, font version: "20.0d8e1", template writer version: "138.0.0"-->
 <style>.monochrome-0 {-sfsymbols-motion-group:2;-sfsymbols-layer-tags:-6f0a1bf277ef4239 square.stack}
.monochrome-1 {opacity:0.0;-sfsymbols-clear-behind:true;-sfsymbols-motion-group:1;-sfsymbols-layer-tags:-6f0a1bf277ef4239 square.stack}
.monochrome-2 {-sfsymbols-motion-group:1;-sfsymbols-layer-tags:-6f0a1bf277ef4239 square.stack}
.monochrome-3 {opacity:0.0;-sfsymbols-clear-behind:true;-sfsymbols-motion-group:0;-sfsymbols-layer-tags:-6f0a1bf277ef4239 square.stack}
.monochrome-4 {-sfsymbols-motion-group:0;-sfsymbols-layer-tags:-6f0a1bf277ef4239 square.stack}
.monochrome-5 {-sfsymbols-motion-group:0;-sfsymbols-always-pulses:true;-sfsymbols-layer-tags:-3ea7f5fe10f909b0 -6f0a1bf277ef4239 film}

.multicolor-0:tintColor {-sfsymbols-motion-group:2;-sfsymbols-layer-tags:-6f0a1bf277ef4239 square.stack}
.multicolor-1:tintColor {opacity:0.0;-sfsymbols-clear-behind:true;-sfsymbols-motion-group:1;-sfsymbols-layer-tags:-6f0a1bf277ef4239 square.stack}
.multicolor-2:tintColor {-sfsymbols-motion-group:1;-sfsymbols-layer-tags:-6f0a1bf277ef4239 square.stack}
.multicolor-3:tintColor {opacity:0.0;-sfsymbols-clear-behind:true;-sfsymbols-motion-group:0;-sfsymbols-layer-tags:-6f0a1bf277ef4239 square.stack}
.multicolor-4:tintColor {-sfsymbols-motion-group:0;-sfsymbols-layer-tags:-6f0a1bf277ef4239 square.stack}
.multicolor-5:tintColor {-sfsymbols-motion-group:0;-sfsymbols-always-pulses:true;-sfsymbols-layer-tags:-3ea7f5fe10f909b0 -6f0a1bf277ef4239 film}

.hierarchical-0:secondary {-sfsymbols-motion-group:2;-sfsymbols-layer-tags:-6f0a1bf277ef4239 square.stack}
.hierarchical-1:primary {opacity:0.0;-sfsymbols-clear-behind:true;-sfsymbols-motion-group:1;-sfsymbols-layer-tags:-6f0a1bf277ef4239 square.stack}
.hierarchical-2:secondary {-sfsymbols-motion-group:1;-sfsymbols-layer-tags:-6f0a1bf277ef4239 square.stack}
.hierarchical-3:primary {opacity:0.0;-sfsymbols-clear-behind:true;-sfsymbols-motion-group:0;-sfsymbols-layer-tags:-6f0a1bf277ef4239 square.stack}
.hierarchical-4:secondary {-sfsymbols-motion-group:0;-sfsymbols-layer-tags:-6f0a1bf277ef4239 square.stack}
.hierarchical-5:primary {-sfsymbols-motion-group:0;-sfsymbols-layer-tags:-3ea7f5fe10f909b0 -6f0a1bf277ef4239 film}

.SFSymbolsPreviewWireframe {fill:none;opacity:1.0;stroke:black;stroke-width:0.5}
</style>
 <g id="Notes">
  <rect height="2200" id="artboard" style="fill:white;opacity:1" width="3300" x="0" y="0"/>
  <line style="fill:none;stroke:black;opacity:1;stroke-width:0.5;" x1="263" x2="3036" y1="292" y2="292"/>
  <text style="stroke:none;fill:black;font-family:sans-serif;font-size:13;font-weight:bold;" transform="matrix(1 0 0 1 263 322)">Weight/Scale Variations</text>
  <text style="stroke:none;fill:black;font-family:sans-serif;font-size:13;text-anchor:middle;" transform="matrix(1 0 0 1 559.711 322)">Ultralight</text>
  <text style="stroke:none;fill:black;font-family:sans-serif;font-size:13;text-anchor:middle;" transform="matrix(1 0 0 1 856.422 322)">Thin</text>
  <text style="stroke:none;fill:black;font-family:sans-serif;font-size:13;text-anchor:middle;" transform="matrix(1 0 0 1 1153.13 322)">Light</text>
  <text style="stroke:none;fill:black;font-family:sans-serif;font-size:13;text-anchor:middle;" transform="matrix(1 0 0 1 1449.84 322)">Regular</text>
  <text style="stroke:none;fill:black;font-family:sans-serif;font-size:13;text-anchor:middle;" transform="matrix(1 0 0 1 1746.56 322)">Medium</text>
  <text style="stroke:none;fill:black;font-family:sans-serif;font-size:13;text-anchor:middle;" transform="matrix(1 0 0 1 2043.27 322)">Semibold</text>
  <text style="stroke:none;fill:black;font-family:sans-serif;font-size:13;text-anchor:middle;" transform="matrix(1 0 0 1 2339.98 322)">Bold</text>
  <text style="stroke:none;fill:black;font-family:sans-serif;font-size:13;text-anchor:middle;" transform="matrix(1 0 0 1 2636.69 322)">Heavy</text>
  <text style="stroke:none;fill:black;font-family:sans-serif;font-size:13;text-anchor:middle;" transform="matrix(1 0 0 1 2933.4 322)">Black</text>
  <line style="fill:none;stroke:black;opacity:1;stroke-width:0.5;" x1="263" x2="3036" y1="1903" y2="1903"/>
  <g transform="matrix(0.2 0 0 0.2 263 1933)">
   <path d="m46.2402 4.15039c21.7773 0 39.4531-17.627 39.4531-39.4043s-17.6758-39.4043-39.4531-39.4043c-21.7285 0-39.4043 17.627-39.4043 39.4043s17.6758 39.4043 39.4043 39.4043Zm0-7.42188c-17.6758 0-31.9336-14.3066-31.9336-31.9824s14.2578-31.9824 31.9336-31.9824 31.9824 14.3066 31.9824 31.9824-14.3066 31.9824-31.9824 31.9824Zm-17.9688-31.9824c0 2.14844 1.51367 3.61328 3.75977 3.61328h10.498v10.5957c0 2.19727 1.46484 3.71094 3.61328 3.71094 2.24609 0 3.71094-1.51367 3.71094-3.71094v-10.5957h10.5957c2.19727 0 3.71094-1.46484 3.71094-3.61328 0-2.19727-1.51367-3.71094-3.71094-3.71094h-10.5957v-10.5469c0-2.24609-1.46484-3.75977-3.71094-3.75977-2.14844 0-3.61328 1.51367-3.61328 3.75977v10.5469h-10.498c-2.24609 0-3.75977 1.51367-3.75977 3.71094Z"/>
  </g>
  <g transform="matrix(0.2 0 0 0.2 281.506 1933)">
   <path d="m58.5449 14.5508c27.4902 0 49.8047-22.3145 49.8047-49.8047s-22.3145-49.8047-49.8047-49.8047-49.8047 22.3145-49.8047 49.8047 22.3145 49.8047 49.8047 49.8047Zm0-8.30078c-22.9492 0-41.5039-18.5547-41.5039-41.5039s18.5547-41.5039 41.5039-41.5039 41.5039 18.5547 41.5039 41.5039-18.5547 41.5039-41.5039 41.5039Zm-22.6562-41.5039c0 2.39258 1.66016 4.00391 4.15039 4.00391h14.3555v14.4043c0 2.44141 1.66016 4.15039 4.05273 4.15039 2.44141 0 4.15039-1.66016 4.15039-4.15039v-14.4043h14.4043c2.44141 0 4.15039-1.61133 4.15039-4.00391 0-2.44141-1.70898-4.15039-4.15039-4.15039h-14.4043v-14.3555c0-2.49023-1.70898-4.19922-4.15039-4.19922-2.39258 0-4.05273 1.70898-4.05273 4.19922v14.3555h-14.3555c-2.49023 0-4.15039 1.70898-4.15039 4.15039Z"/>
  </g>
  <g transform="matrix(0.2 0 0 0.2 304.924 1933)">
   <path d="m74.8535 28.3203c35.1074 0 63.623-28.4668 63.623-63.5742s-28.5156-63.623-63.623-63.623-63.5742 28.5156-63.5742 63.623 28.4668 63.5742 63.5742 63.5742Zm0-9.08203c-30.127 0-54.4922-24.3652-54.4922-54.4922s24.3652-54.4922 54.4922-54.4922 54.4922 24.3652 54.4922 54.4922-24.3652 54.4922-54.4922 54.4922Zm-28.8574-54.4922c0 2.58789 1.85547 4.39453 4.58984 4.39453h19.7266v19.7754c0 2.68555 1.85547 4.58984 4.44336 4.58984 2.68555 0 4.54102-1.85547 4.54102-4.58984v-19.7754h19.7754c2.68555 0 4.58984-1.80664 4.58984-4.39453 0-2.73438-1.85547-4.58984-4.58984-4.58984h-19.7754v-19.7266c0-2.73438-1.85547-4.63867-4.54102-4.63867-2.58789 0-4.44336 1.9043-4.44336 4.63867v19.7266h-19.7266c-2.73438 0-4.58984 1.85547-4.58984 4.58984Z"/>
  </g>
  <text style="stroke:none;fill:black;font-family:sans-serif;font-size:13;font-weight:bold;" transform="matrix(1 0 0 1 263 1953)">Design Variations</text>
  <text style="stroke:none;fill:black;font-family:sans-serif;font-size:13;" transform="matrix(1 0 0 1 263 1971)">Symbols are supported in up to nine weights and three scales.</text>
  <text style="stroke:none;fill:black;font-family:sans-serif;font-size:13;" transform="matrix(1 0 0 1 263 1989)">For optimal layout with text and other symbols, vertically align</text>
  <text style="stroke:none;fill:black;font-family:sans-serif;font-size:13;" transform="matrix(1 0 0 1 263 2007)">symbols with the adjacent text.</text>
  <line style="fill:none;stroke:#00AEEF;stroke-width:0.5;opacity:1.0;" x1="776" x2="776" y1="1919" y2="1933"/>
  <g transform="matrix(0.2 0 0 0.2 776 1933)">
   <path d="m16.5527 0.78125c2.58789 0 3.85742-0.976562 4.78516-3.71094l6.29883-17.2363h28.8086l6.29883 17.2363c0.927734 2.73438 2.19727 3.71094 4.73633 3.71094 2.58789 0 4.24805-1.5625 4.24805-4.00391 0-0.830078-0.146484-1.61133-0.537109-2.63672l-22.9004-60.9863c-1.12305-2.97852-3.125-4.49219-6.25-4.49219-3.02734 0-5.07812 1.46484-6.15234 4.44336l-22.9004 61.084c-0.390625 1.02539-0.537109 1.80664-0.537109 2.63672 0 2.44141 1.5625 3.95508 4.10156 3.95508Zm13.4766-28.3691 11.8652-32.8613h0.244141l11.8652 32.8613Z"/>
  </g>
  <line style="fill:none;stroke:#00AEEF;stroke-width:0.5;opacity:1.0;" x1="792.836" x2="792.836" y1="1919" y2="1933"/>
  <text style="stroke:none;fill:black;font-family:sans-serif;font-size:13;font-weight:bold;" transform="matrix(1 0 0 1 776 1953)">Margins</text>
  <text style="stroke:none;fill:black;font-family:sans-serif;font-size:13;" transform="matrix(1 0 0 1 776 1971)">Leading and trailing margins on the left and right side of each symbol</text>
  <text style="stroke:none;fill:black;font-family:sans-serif;font-size:13;" transform="matrix(1 0 0 1 776 1989)">can be adjusted by modifying the x-location of the margin guidelines.</text>
  <text style="stroke:none;fill:black;font-family:sans-serif;font-size:13;" transform="matrix(1 0 0 1 776 2007)">Modifications are automatically applied proportionally to all</text>
  <text style="stroke:none;fill:black;font-family:sans-serif;font-size:13;" transform="matrix(1 0 0 1 776 2025)">scales and weights.</text>
  <g transform="matrix(0.2 0 0 0.2 1289 1933)">
   <path d="m14.209 9.32617 8.49609 8.54492c4.29688 4.3457 9.22852 4.05273 13.8672-1.07422l53.4668-58.9355-4.83398-4.88281-53.0762 58.3984c-1.75781 2.00195-3.41797 2.49023-5.76172 0.146484l-5.85938-5.81055c-2.34375-2.29492-1.80664-4.00391 0.195312-5.81055l57.373-54.0039-4.88281-4.83398-57.959 54.4434c-4.93164 4.58984-5.32227 9.47266-1.02539 13.8184Zm32.0801-90.9668c-2.09961 2.05078-2.24609 4.93164-1.07422 6.88477 1.17188 1.80664 3.4668 2.97852 6.68945 2.14844 7.32422-1.70898 14.9414-2.00195 22.0703 2.68555l-2.92969 7.27539c-1.70898 4.15039-0.830078 7.08008 1.85547 9.81445l11.4746 11.5723c2.44141 2.44141 4.49219 2.53906 7.32422 2.05078l5.32227-0.976562 3.32031 3.36914-0.195312 2.7832c-0.195312 2.49023 0.439453 4.39453 2.88086 6.78711l3.80859 3.71094c2.39258 2.39258 5.46875 2.53906 7.8125 0.195312l14.5508-14.5996c2.34375-2.34375 2.24609-5.32227-0.146484-7.71484l-3.85742-3.80859c-2.39258-2.39258-4.24805-3.17383-6.64062-2.97852l-2.88086 0.244141-3.22266-3.17383 1.2207-5.61523c0.634766-2.83203-0.146484-5.0293-3.07617-7.95898l-10.9863-10.9375c-16.6992-16.6016-38.8672-16.2109-53.3203-1.75781Zm7.4707 1.85547c12.1582-8.88672 28.6133-7.37305 39.7461 3.75977l12.1582 12.0605c1.17188 1.17188 1.36719 2.09961 1.02539 3.80859l-1.61133 7.42188 7.51953 7.42188 4.93164-0.292969c1.26953-0.0488281 1.66016 0.0488281 2.63672 1.02539l2.88086 2.88086-12.207 12.207-2.88086-2.88086c-0.976562-0.976562-1.12305-1.36719-1.07422-2.68555l0.341797-4.88281-7.4707-7.42188-7.61719 1.26953c-1.61133 0.341797-2.34375 0.195312-3.56445-0.976562l-10.0098-10.0098c-1.26953-1.17188-1.41602-2.00195-0.634766-3.85742l4.39453-10.4492c-7.8125-7.27539-17.9688-10.4004-28.125-7.42188-0.78125 0.195312-1.07422-0.439453-0.439453-0.976562Z"/>
  </g>
  <text style="stroke:none;fill:black;font-family:sans-serif;font-size:13;font-weight:bold;" transform="matrix(1 0 0 1 1289 1953)">Exporting</text>
  <text style="stroke:none;fill:black;font-family:sans-serif;font-size:13;" transform="matrix(1 0 0 1 1289 1971)">Symbols should be outlined when exporting to ensure the</text>
  <text style="stroke:none;fill:black;font-family:sans-serif;font-size:13;" transform="matrix(1 0 0 1 1289 1989)">design is preserved when submitting to Xcode.</text>
  <text id="template-version" style="stroke:none;fill:black;font-family:sans-serif;font-size:13;text-anchor:end;" transform="matrix(1 0 0 1 3036 1933)">Template v.6.0</text>
  <text style="stroke:none;fill:black;font-family:sans-serif;font-size:13;text-anchor:end;" transform="matrix(1 0 0 1 3036 1951)">Requires Xcode 16 or greater</text>
  <text id="descriptive-name" style="stroke:none;fill:black;font-family:sans-serif;font-size:13;text-anchor:end;" transform="matrix(1 0 0 1 3036 1969)">Generated from square.stack</text>
  <text style="stroke:none;fill:black;font-family:sans-serif;font-size:13;text-anchor:end;" transform="matrix(1 0 0 1 3036 1987)">Typeset at 100.0 points</text>
  <text style="stroke:none;fill:black;font-family:sans-serif;font-size:13;" transform="matrix(1 0 0 1 263 726)">Small</text>
  <text style="stroke:none;fill:black;font-family:sans-serif;font-size:13;" transform="matrix(1 0 0 1 263 1156)">Medium</text>
  <text style="stroke:none;fill:black;font-family:sans-serif;font-size:13;" transform="matrix(1 0 0 1 263 1586)">Large</text>
 </g>
 <g id="Guides">
  <g id="H-reference" style="fill:#27AAE1;stroke:none;" transform="matrix(1 0 0 1 339 696)">
   <path d="M0.993654 0L3.63775 0L29.3281-67.1323L30.0303-67.1323L30.0303-70.459L28.1226-70.459ZM11.6885-24.4799L46.9815-24.4799L46.2315-26.7285L12.4385-26.7285ZM55.1196 0L57.7637 0L30.6382-70.459L29.4326-70.459L29.4326-67.1323Z"/>
  </g>
  <line id="Baseline-S" style="fill:none;stroke:#27AAE1;opacity:1;stroke-width:0.5;" x1="263" x2="3036" y1="696" y2="696"/>
  <line id="Capline-S" style="fill:none;stroke:#27AAE1;opacity:1;stroke-width:0.5;" x1="263" x2="3036" y1="625.541" y2="625.541"/>
  <g id="H-reference" style="fill:#27AAE1;stroke:none;" transform="matrix(1 0 0 1 339 1126)">
   <path d="M0.993654 0L3.63775 0L29.3281-67.1323L30.0303-67.1323L30.0303-70.459L28.1226-70.459ZM11.6885-24.4799L46.9815-24.4799L46.2315-26.7285L12.4385-26.7285ZM55.1196 0L57.7637 0L30.6382-70.459L29.4326-70.459L29.4326-67.1323Z"/>
  </g>
  <line id="Baseline-M" style="fill:none;stroke:#27AAE1;opacity:1;stroke-width:0.5;" x1="263" x2="3036" y1="1126" y2="1126"/>
  <line id="Capline-M" style="fill:none;stroke:#27AAE1;opacity:1;stroke-width:0.5;" x1="263" x2="3036" y1="1055.54" y2="1055.54"/>
  <g id="H-reference" style="fill:#27AAE1;stroke:none;" transform="matrix(1 0 0 1 339 1556)">
   <path d="M0.993654 0L3.63775 0L29.3281-67.1323L30.0303-67.1323L30.0303-70.459L28.1226-70.459ZM11.6885-24.4799L46.9815-24.4799L46.2315-26.7285L12.4385-26.7285ZM55.1196 0L57.7637 0L30.6382-70.459L29.4326-70.459L29.4326-67.1323Z"/>
  </g>
  <line id="Baseline-L" style="fill:none;stroke:#27AAE1;opacity:1;stroke-width:0.5;" x1="263" x2="3036" y1="1556" y2="1556"/>
  <line id="Capline-L" style="fill:none;stroke:#27AAE1;opacity:1;stroke-width:0.5;" x1="263" x2="3036" y1="1485.54" y2="1485.54"/>
  <line id="right-margin-Black-S" style="fill:none;stroke:#00AEEF;stroke-width:0.5;opacity:1.0;" x1="2979.84" x2="2979.84" y1="600.785" y2="720.121"/>
  <line id="left-margin-Black-S" style="fill:none;stroke:#00AEEF;stroke-width:0.5;opacity:1.0;" x1="2886.96" x2="2886.96" y1="600.785" y2="720.121"/>
  <line id="right-margin-Regular-S" style="fill:none;stroke:#00AEEF;stroke-width:0.5;opacity:1.0;" x1="1493.64" x2="1493.64" y1="600.785" y2="720.121"/>
  <line id="left-margin-Regular-S" style="fill:none;stroke:#00AEEF;stroke-width:0.5;opacity:1.0;" x1="1406.05" x2="1406.05" y1="600.785" y2="720.121"/>
  <line id="right-margin-Ultralight-S" style="fill:none;stroke:#00AEEF;stroke-width:0.5;opacity:1.0;" x1="600.672" x2="600.672" y1="600.785" y2="720.121"/>
  <line id="left-margin-Ultralight-S" style="fill:none;stroke:#00AEEF;stroke-width:0.5;opacity:1.0;" x1="518.75" x2="518.75" y1="600.785" y2="720.121"/>
 </g>
 <g id="Symbols">
  <g id="Black-S" transform="matrix(1 0 0 1 2886.96 696)">
   <path class="monochrome-0 multicolor-0:tintColor hierarchical-0:secondary SFSymbolsPreviewWireframe" d="M33.9355-43.8477L58.9355-43.8477C63.0859-43.8477 65.625-46.4355 65.625-50.5371L65.625-78.2227C65.625-82.373 63.0859-84.9121 58.9355-84.9121L33.9355-84.9121C29.7852-84.9121 27.2461-82.373 27.2461-78.2227L27.2461-50.5371C27.2461-46.4355 29.7852-43.8477 33.9355-43.8477Z"/>
   <path class="monochrome-1 multicolor-1:tintColor hierarchical-1:primary SFSymbolsPreviewWireframe" d="M28.5645-13.1836L64.3066-13.1836C72.998-13.1836 79.0527-19.2383 79.0527-27.9297L79.0527-63.8672C79.0527-72.5586 72.998-78.6133 64.3066-78.6133L28.5645-78.6133C19.873-78.6133 13.8184-72.5586 13.8184-63.8672L13.8184-27.9297C13.8184-19.2383 19.873-13.1836 28.5645-13.1836Z"/>
   <path class="monochrome-2 multicolor-2:tintColor hierarchical-2:secondary SFSymbolsPreviewWireframe" d="M28.5645-19.043L64.3066-19.043C69.6289-19.043 72.9492-22.3633 72.9492-27.6855L72.9492-63.8672C72.9492-69.1895 69.6289-72.5098 64.3066-72.5098L28.5645-72.5098C23.2422-72.5098 19.9219-69.1895 19.9219-63.8672L19.9219-27.6855C19.9219-22.3633 23.2422-19.043 28.5645-19.043Z"/>
   <path class="monochrome-3 multicolor-3:tintColor hierarchical-3:primary SFSymbolsPreviewWireframe" d="M25 21.0938L67.8711 21.0938C81.1035 21.0938 89.6973 12.5 89.6973-0.732422L89.6973-43.6035C89.6973-56.8359 81.1035-65.4297 67.8711-65.4297L25-65.4297C11.7676-65.4297 3.17383-56.8359 3.17383-43.6035L3.17383-0.732422C3.17383 12.5 11.7676 21.0938 25 21.0938Z"/>
   <path class="monochrome-4 multicolor-4:tintColor hierarchical-4:secondary SFSymbolsPreviewWireframe" d="M25 14.502L67.8711 14.502C77.4414 14.502 83.1055 8.83789 83.1055-0.732422L83.1055-43.6035C83.1055-53.1738 77.4414-58.8379 67.8711-58.8379L25-58.8379C15.4297-58.8379 9.76562-53.1738 9.76562-43.6035L9.76562-0.732422C9.76562 8.83789 15.4297 14.502 25 14.502ZM27.2461 0.341797C25 0.341797 23.9258-0.537109 23.9258-2.97852L23.9258-41.3574C23.9258-43.7988 25-44.6777 27.2461-44.6777L65.625-44.6777C67.8711-44.6777 68.9453-43.7988 68.9453-41.3574L68.9453-2.97852C68.9453-0.537109 67.8711 0.341797 65.625 0.341797Z"/>
   <path class="monochrome-5 multicolor-5:tintColor hierarchical-5:primary SFSymbolsPreviewWireframe" d="M32.883-6.39742L59.9925-6.39742C63.0178-6.39742 65.0757-8.45526 65.0757-11.4831L65.0757-32.3432C65.0757-35.3962 63.0178-37.4516 59.9925-37.4516L32.883-37.4516C29.8568-37.4516 27.7999-35.3962 27.7999-32.3432L27.7999-11.4831C27.7999-8.45526 29.8568-6.39742 32.883-6.39742ZM32.9685-11.4938C32.6606-11.4938 32.4024-11.7274 32.4024-12.0607L32.4024-12.7079C32.4024-13.048 32.6678-13.2881 33.0006-13.2881L33.8502-13.2881C34.1863-13.2881 34.4517-13.048 34.4517-12.7079L34.4517-12.092C34.4517-11.7379 34.1863-11.4938 33.8502-11.4938ZM33.0006-16.1377C32.6678-16.1377 32.4024-16.3989 32.4024-16.7416L32.4024-17.3743C32.4024-17.7048 32.6726-17.9725 33.0006-17.9725L33.8502-17.9725C34.1863-17.9725 34.4517-17.7048 34.4517-17.3743L34.4517-16.7416C34.4517-16.3989 34.1863-16.1377 33.8502-16.1377ZM33.0006-21.0307C32.6678-21.0307 32.4024-21.2928 32.4024-21.6354L32.4024-22.2658C32.4024-22.5962 32.6726-22.864 33.0006-22.864L33.8502-22.864C34.1863-22.864 34.4517-22.5962 34.4517-22.2658L34.4517-21.6354C34.4517-21.2928 34.1863-21.0307 33.8502-21.0307ZM33.0006-25.9262C32.6678-25.9262 32.4024-26.1851 32.4024-26.5286L32.4024-27.1605C32.4024-27.4918 32.6726-27.7587 33.0006-27.7587L33.8502-27.7587C34.1863-27.7587 34.4517-27.4918 34.4517-27.1605L34.4517-26.5286C34.4517-26.1851 34.1863-25.9262 33.8502-25.9262ZM33.0006-30.6066C32.6678-30.6066 32.4024-30.8458 32.4024-31.1885L32.4024-31.8348C32.4024-32.1673 32.6606-32.4017 32.9685-32.4017L33.8502-32.4017C34.1863-32.4017 34.4517-32.1576 34.4517-31.8035L34.4517-31.1885C34.4517-30.8458 34.1863-30.6066 33.8502-30.6066ZM39.17-11.4938C38.5637-11.4938 38.0599-11.9976 38.0599-12.604L38.0599-18.3021C38.0599-18.9085 38.5637-19.4123 39.17-19.4123L53.4775-19.4123C54.0839-19.4123 54.5877-18.9085 54.5877-18.3021L54.5877-12.604C54.5877-11.9976 54.0839-11.4938 53.4775-11.4938ZM39.17-24.485C38.5637-24.485 38.0599-24.9888 38.0599-25.5952L38.0599-31.2907C38.0599-31.8971 38.5637-32.4017 39.17-32.4017L53.4775-32.4017C54.0839-32.4017 54.5877-31.8971 54.5877-31.2907L54.5877-25.5952C54.5877-24.9888 54.0839-24.485 53.4775-24.485ZM58.7973-11.4938C58.4612-11.4938 58.1958-11.7379 58.1958-12.092L58.1958-12.7079C58.1958-13.048 58.4612-13.2881 58.7973-13.2881L59.646-13.2881C59.9789-13.2881 60.2442-13.048 60.2442-12.7079L60.2442-12.0607C60.2442-11.7274 59.9869-11.4938 59.6782-11.4938ZM58.7973-16.1377C58.4612-16.1377 58.1958-16.3989 58.1958-16.7416L58.1958-17.3743C58.1958-17.7048 58.4612-17.9725 58.7973-17.9725L59.646-17.9725C59.974-17.9725 60.2442-17.7048 60.2442-17.3743L60.2442-16.7416C60.2442-16.3989 59.9789-16.1377 59.646-16.1377ZM58.7973-21.0307C58.4612-21.0307 58.1958-21.2928 58.1958-21.6354L58.1958-22.2658C58.1958-22.5962 58.4612-22.864 58.7973-22.864L59.646-22.864C59.974-22.864 60.2442-22.5962 60.2442-22.2658L60.2442-21.6354C60.2442-21.2928 59.9789-21.0307 59.646-21.0307ZM58.7973-25.9262C58.4612-25.9262 58.1958-26.1851 58.1958-26.5286L58.1958-27.1605C58.1958-27.4918 58.4612-27.7587 58.7973-27.7587L59.646-27.7587C59.974-27.7587 60.2442-27.4918 60.2442-27.1605L60.2442-26.5286C60.2442-26.1851 59.9789-25.9262 59.646-25.9262ZM58.7973-30.6066C58.4612-30.6066 58.1958-30.8458 58.1958-31.1885L58.1958-31.8035C58.1958-32.1576 58.4612-32.4017 58.7973-32.4017L59.6782-32.4017C59.9869-32.4017 60.2442-32.1673 60.2442-31.8348L60.2442-31.1885C60.2442-30.8458 59.9789-30.6066 59.646-30.6066Z"/>
  </g>
  <g id="Regular-S" transform="matrix(1 0 0 1 1406.05 696)">
   <path class="monochrome-0 multicolor-0:tintColor hierarchical-0:secondary SFSymbolsPreviewWireframe" d="M31.6406-42.334L55.957-42.334C59.7168-42.334 61.8652-44.3848 61.8652-48.1445L61.8652-74.707C61.8652-78.4668 59.7168-80.5664 55.957-80.5664L31.6406-80.5664C27.8809-80.5664 25.7324-78.4668 25.7324-74.707L25.7324-48.1445C25.7324-44.3848 27.8809-42.334 31.6406-42.334Z"/>
   <path class="monochrome-1 multicolor-1:tintColor hierarchical-1:primary SFSymbolsPreviewWireframe" d="M25.6836-9.57031L61.9629-9.57031C69.7754-9.57031 74.9023-14.5508 74.9023-22.3633L74.9023-62.2559C74.9023-70.0195 69.7754-75.0488 61.9629-75.0488L25.6836-75.0488C17.8223-75.0488 12.7441-70.0195 12.7441-62.2559L12.7441-22.3633C12.7441-14.5508 17.8223-9.57031 25.6836-9.57031Z"/>
   <path class="monochrome-2 multicolor-2:tintColor hierarchical-2:secondary SFSymbolsPreviewWireframe" d="M25.5371-14.502L62.0605-14.502C67.0898-14.502 69.9219-17.2852 69.9219-22.2656L69.9219-62.3535C69.9219-67.2852 67.0898-70.0684 62.0605-70.0684L25.5371-70.0684C20.5078-70.0684 17.6758-67.2852 17.6758-62.3535L17.6758-22.2656C17.6758-17.2852 20.5078-14.502 25.5371-14.502Z"/>
   <path class="monochrome-3 multicolor-3:tintColor hierarchical-3:primary SFSymbolsPreviewWireframe" d="M22.2168 16.0645L65.4297 16.0645C76.9531 16.0645 83.7891 9.375 83.7891-2.14844L83.7891-45.7031C83.7891-57.2266 76.9531-63.916 65.4297-63.916L22.2168-63.916C10.5957-63.916 3.80859-57.2266 3.80859-45.7031L3.80859-2.14844C3.80859 9.375 10.5957 16.0645 22.2168 16.0645Z"/>
   <path class="monochrome-4 multicolor-4:tintColor hierarchical-4:secondary SFSymbolsPreviewWireframe" d="M22.2168 10.1562L65.4297 10.1562C73.7305 10.1562 77.8809 6.05469 77.8809-2.14844L77.8809-45.7031C77.8809-53.9062 73.7305-57.959 65.4297-57.959L22.2168-57.959C13.8672-57.959 9.76562-53.9062 9.76562-45.7031L9.76562-2.14844C9.76562 6.05469 13.8672 10.1562 22.2168 10.1562ZM22.3145 3.125C18.7988 3.125 16.7969 1.2207 16.7969-2.49023L16.7969-45.3125C16.7969-49.0234 18.7988-50.9277 22.3145-50.9277L65.332-50.9277C68.7988-50.9277 70.8496-49.0234 70.8496-45.3125L70.8496-2.49023C70.8496 1.2207 68.7988 3.125 65.332 3.125Z"/>
   <path class="monochrome-5 multicolor-5:tintColor hierarchical-5:primary SFSymbolsPreviewWireframe" d="M26.0286-6.22204L61.5706-6.22204C64.6682-6.22204 66.7298-8.28357 66.7298-11.3394L66.7298-38.0896C66.7298-41.1591 64.6682-43.219 61.5706-43.219L26.0286-43.219C22.945-43.219 20.8695-41.1591 20.8695-38.0896L20.8695-11.3394C20.8695-8.28357 22.945-6.22204 26.0286-6.22204ZM26.0878-10.9894C25.5909-10.9894 25.2449-11.3511 25.2449-11.8184L25.2449-13.2355C25.2449-13.7396 25.5957-14.0767 26.095-14.0767L27.7545-14.0767C28.2414-14.0767 28.5923-13.7396 28.5923-13.2355L28.5923-11.8395C28.5923-11.3437 28.2414-10.9894 27.7545-10.9894ZM26.095-17.0592C25.5957-17.0592 25.2449-17.4362 25.2449-17.8986L25.2449-19.3059C25.2449-19.8035 25.599-20.156 26.095-20.156L27.7545-20.156C28.2414-20.156 28.5923-19.8035 28.5923-19.3059L28.5923-17.8986C28.5923-17.4362 28.2414-17.0592 27.7545-17.0592ZM26.095-23.192C25.5957-23.192 25.2449-23.5551 25.2449-24.0176L25.2449-25.4232C25.2449-25.9209 25.599-26.2733 26.095-26.2733L27.7545-26.2733C28.2414-26.2733 28.5923-25.9209 28.5923-25.4232L28.5923-24.0176C28.5923-23.5551 28.2414-23.192 27.7545-23.192ZM26.095-29.2831C25.5957-29.2831 25.2449-29.6585 25.2449-30.1071L25.2449-31.5283C25.2449-32.012 25.599-32.3783 26.095-32.3783L27.7545-32.3783C28.2414-32.3783 28.5923-32.012 28.5923-31.5283L28.5923-30.1071C28.5923-29.6585 28.2414-29.2831 27.7545-29.2831ZM26.095-35.3887C25.5957-35.3887 25.2449-35.7396 25.2449-36.202L25.2449-37.633C25.2449-38.1143 25.5909-38.462 26.0878-38.462L27.7545-38.462C28.2414-38.462 28.5923-38.1078 28.5923-37.6119L28.5923-36.202C28.5923-35.7396 28.2414-35.3887 27.7545-35.3887ZM33.4043-10.9894C32.7595-10.9894 32.2948-11.4542 32.2948-12.099L32.2948-21.2177C32.2948-21.8625 32.7595-22.3272 33.4043-22.3272L54.0736-22.3272C54.7184-22.3272 55.1831-21.8625 55.1831-21.2177L55.1831-12.099C55.1831-11.4542 54.7184-10.9894 54.0736-10.9894ZM33.4043-27.0964C32.7595-27.0964 32.2948-27.5611 32.2948-28.2059L32.2948-37.3663C32.2948-38.0112 32.7595-38.462 33.4043-38.462L54.0736-38.462C54.7184-38.462 55.1831-38.0112 55.1831-37.3663L55.1831-28.2059C55.1831-27.5611 54.7184-27.0964 54.0736-27.0964ZM59.7235-10.9894C59.2365-10.9894 58.8857-11.3437 58.8857-11.8395L58.8857-13.2355C58.8857-13.7396 59.2365-14.0767 59.7235-14.0767L61.3969-14.0767C61.8961-14.0767 62.2469-13.7396 62.2469-13.2355L62.2469-11.8184C62.2469-11.3511 61.8871-10.9894 61.404-10.9894ZM59.7235-17.0592C59.2365-17.0592 58.8857-17.4362 58.8857-17.8986L58.8857-19.3059C58.8857-19.8035 59.2365-20.156 59.7235-20.156L61.3969-20.156C61.8928-20.156 62.2469-19.8035 62.2469-19.3059L62.2469-17.8986C62.2469-17.4362 61.8961-17.0592 61.3969-17.0592ZM59.7235-23.192C59.2365-23.192 58.8857-23.5551 58.8857-24.0176L58.8857-25.4232C58.8857-25.9209 59.2365-26.2733 59.7235-26.2733L61.3969-26.2733C61.8928-26.2733 62.2469-25.9209 62.2469-25.4232L62.2469-24.0176C62.2469-23.5551 61.8961-23.192 61.3969-23.192ZM59.7235-29.2831C59.2365-29.2831 58.8857-29.6585 58.8857-30.1071L58.8857-31.5283C58.8857-32.012 59.2365-32.3783 59.7235-32.3783L61.3969-32.3783C61.8928-32.3783 62.2469-32.012 62.2469-31.5283L62.2469-30.1071C62.2469-29.6585 61.8961-29.2831 61.3969-29.2831ZM59.7235-35.3887C59.2365-35.3887 58.8857-35.7396 58.8857-36.202L58.8857-37.6119C58.8857-38.1078 59.2365-38.462 59.7235-38.462L61.404-38.462C61.8871-38.462 62.2469-38.1143 62.2469-37.633L62.2469-36.202C62.2469-35.7396 61.8961-35.3887 61.3969-35.3887Z"/>
  </g>
  <g id="Ultralight-S" transform="matrix(1 0 0 1 518.75 696)">
   <path class="monochrome-0 multicolor-0:tintColor hierarchical-0:secondary SFSymbolsPreviewWireframe" d="M28.2349-38.565L53.6865-38.565C55.4029-38.565 56.5977-39.7984 56.5977-41.5147L56.5977-72.3911C56.5977-74.1075 55.4029-75.2989 53.6865-75.2989L28.2349-75.2989C26.5186-75.2989 25.2783-74.1075 25.2783-72.3911L25.2783-41.5147C25.2783-39.7984 26.5186-38.565 28.2349-38.565Z"/>
   <path class="monochrome-1 multicolor-1:tintColor hierarchical-1:primary SFSymbolsPreviewWireframe" d="M23.1406-11.0234L58.7388-11.0234C65.2798-11.0234 69.9981-15.7314 69.9981-22.2725L69.9981-61.938C69.9981-68.4756 65.2798-73.187 58.7388-73.187L23.1406-73.187C16.5962-73.187 11.8814-68.4756 11.8814-61.938L11.8814-22.2725C11.8814-15.7314 16.5962-11.0234 23.1406-11.0234Z"/>
   <path class="monochrome-2 multicolor-2:tintColor hierarchical-2:secondary SFSymbolsPreviewWireframe" d="M21.314-17.272L60.6074-17.272C62.5035-17.272 63.7461-18.5112 63.7461-20.4038L63.7461-63.8066C63.7461-65.6958 62.5035-66.8897 60.6074-66.8897L21.314-66.8897C19.3726-66.8897 18.1753-65.6958 18.1753-63.8066L18.1753-20.4038C18.1753-18.5112 19.3726-17.272 21.314-17.272Z"/>
   <path class="monochrome-3 multicolor-3:tintColor hierarchical-3:primary SFSymbolsPreviewWireframe" d="M19.7193 12.1592L62.1602 12.1592C72.73 12.1592 79.4297 5.37894 79.4297-5.05466L79.4297-47.5195C79.4297-57.9531 72.73-64.7334 62.1602-64.7334L19.7193-64.7334C9.188-64.7334 2.49171-58.0439 2.49171-47.5195L2.49171-5.05466C2.49171 5.46976 9.188 12.1592 19.7193 12.1592Z"/>
   <path class="monochrome-4 multicolor-4:tintColor hierarchical-4:secondary SFSymbolsPreviewWireframe" d="M19.7193 4.88871L62.1602 4.88871C68.69 4.88871 72.1592 1.37748 72.1592-5.05466L72.1592-47.5195C72.1592-53.9517 68.69-57.5049 62.1602-57.5049L19.7193-57.5049C13.186-57.5049 9.76562-54.0425 9.76562-47.5195L9.76562-5.05466C9.76562 1.4683 13.186 4.88871 19.7193 4.88871ZM19.8169 2.71631C14.6665 2.71631 11.938-0.00536144 11.938-5.16941L11.938-47.4014C11.938-52.6108 14.6665-55.2871 19.8169-55.2871L62.0625-55.2871C67.0733-55.2871 69.9414-52.6108 69.9414-47.4014L69.9414-5.16941C69.9414-0.00536144 67.0733 2.71631 62.0625 2.71631Z"/>
   <path class="monochrome-5 multicolor-5:tintColor hierarchical-5:primary SFSymbolsPreviewWireframe" d="M21.6767-9.60944L60.2444-9.60944C62.1603-9.60944 63.2737-10.7228 63.2737-12.6086L63.2737-40.9684C63.2737-42.8399 62.1603-43.9676 60.2444-43.9676L21.6767-43.9676C19.7709-43.9676 18.6475-42.8399 18.6475-40.9684L18.6475-12.6086C18.6475-10.7228 19.7709-9.60944 21.6767-9.60944ZM21.7155-11.5997C20.9857-11.5997 20.5475-12.0579 20.5475-12.7577L20.5475-15.5398C20.5475-16.0725 20.9425-16.4819 21.5185-16.4819L24.7749-16.4819C25.3264-16.4819 25.7214-16.0725 25.7214-15.5398L25.7214-12.5706C25.7214-11.9903 25.3264-11.5997 24.7749-11.5997ZM21.5185-18.0756C20.9425-18.0756 20.5475-18.505 20.5475-19.0077L20.5475-21.8761C20.5475-22.4664 20.9137-22.847 21.5185-22.847L24.7749-22.847C25.3264-22.847 25.7214-22.4664 25.7214-21.8761L25.7214-19.0077C25.7214-18.505 25.3264-18.0756 24.7749-18.0756ZM21.5185-24.4006C20.9425-24.4006 20.5475-24.82 20.5475-25.3227L20.5475-28.2055C20.5475-28.7958 20.9137-29.1764 21.5185-29.1764L24.7749-29.1764C25.3264-29.1764 25.7214-28.7958 25.7214-28.2055L25.7214-25.3227C25.7214-24.82 25.3264-24.4006 24.7749-24.4006ZM21.5185-30.6955C20.9425-30.6955 20.5475-31.1394 20.5475-31.632L20.5475-34.5105C20.5475-35.0908 20.9137-35.4814 21.5185-35.4814L24.7749-35.4814C25.3264-35.4814 25.7214-35.0908 25.7214-34.5105L25.7214-31.632C25.7214-31.1394 25.3264-30.6955 24.7749-30.6955ZM21.5185-37.0951C20.9425-37.0951 20.5475-37.5145 20.5475-38.0172L20.5475-40.8093C20.5475-41.5191 20.9857-41.9673 21.7155-41.9673L24.7749-41.9673C25.3264-41.9673 25.7214-41.5767 25.7214-40.9964L25.7214-38.0172C25.7214-37.5145 25.3264-37.0951 24.7749-37.0951ZM28.4246-11.5997C27.8486-11.5997 27.5212-11.9271 27.5212-12.503L27.5212-24.87C27.5212-25.4459 27.8486-25.7733 28.4246-25.7733L53.4966-25.7733C54.0725-25.7733 54.3999-25.4459 54.3999-24.87L54.3999-12.503C54.3999-11.9271 54.0725-11.5997 53.4966-11.5997ZM28.4246-27.7736C27.8486-27.7736 27.5212-28.101 27.5212-28.6769L27.5212-41.074C27.5212-41.6499 27.8486-41.9673 28.4246-41.9673L53.4966-41.9673C54.0725-41.9673 54.3999-41.6499 54.3999-41.074L54.3999-28.6769C54.3999-28.101 54.0725-27.7736 53.4966-27.7736ZM57.1462-11.5997C56.5947-11.5997 56.1997-11.9903 56.1997-12.5706L56.1997-15.5398C56.1997-16.0725 56.5947-16.4819 57.1462-16.4819L60.4127-16.4819C60.9886-16.4819 61.3836-16.0725 61.3836-15.5398L61.3836-12.7577C61.3836-12.0579 60.9354-11.5997 60.2156-11.5997ZM57.1462-18.0756C56.5947-18.0756 56.1997-18.505 56.1997-19.0077L56.1997-21.8761C56.1997-22.4664 56.5947-22.847 57.1462-22.847L60.4127-22.847C61.0174-22.847 61.3836-22.4664 61.3836-21.8761L61.3836-19.0077C61.3836-18.505 60.9886-18.0756 60.4127-18.0756ZM57.1462-24.4006C56.5947-24.4006 56.1997-24.82 56.1997-25.3227L56.1997-28.2055C56.1997-28.7958 56.5947-29.1764 57.1462-29.1764L60.4127-29.1764C61.0174-29.1764 61.3836-28.7958 61.3836-28.2055L61.3836-25.3227C61.3836-24.82 60.9886-24.4006 60.4127-24.4006ZM57.1462-30.6955C56.5947-30.6955 56.1997-31.1394 56.1997-31.632L56.1997-34.5105C56.1997-35.0908 56.5947-35.4814 57.1462-35.4814L60.4127-35.4814C61.0174-35.4814 61.3836-35.0908 61.3836-34.5105L61.3836-31.632C61.3836-31.1394 60.9886-30.6955 60.4127-30.6955ZM57.1462-37.0951C56.5947-37.0951 56.1997-37.5145 56.1997-38.0172L56.1997-40.9964C56.1997-41.5767 56.5947-41.9673 57.1462-41.9673L60.2156-41.9673C60.9354-41.9673 61.3836-41.5191 61.3836-40.8093L61.3836-38.0172C61.3836-37.5145 60.9886-37.0951 60.4127-37.0951Z"/>
  </g>
 </g>
</svg>
