<?xml version="1.0" encoding="UTF-8"?>
<!--Generator: Apple Native CoreSVG 175-->
<!DOCTYPE svg
PUBLIC "-//W3C//DTD SVG 1.1//EN"
       "http://www.w3.org/Graphics/SVG/1.1/DTD/svg11.dtd">
<svg version="1.1" xmlns="http://www.w3.org/2000/svg" xmlns:xlink="http://www.w3.org/1999/xlink" width="3300" height="2200">
 <!--glyph: "uni10031B.medium", point size: 100.0, font version: "17.1d1e1", template writer version: "65.1"-->
 <g id="Notes">
  <rect height="2200" id="artboard" style="fill:white;opacity:1" width="3300" x="0" y="0"/>
  <line style="fill:none;stroke:black;opacity:1;stroke-width:0.5;" x1="263" x2="3036" y1="292" y2="292"/>
  <text style="stroke:none;fill:black;font-family:sans-serif;font-size:13;font-weight:bold;" transform="matrix(1 0 0 1 263 322)">Weight/Scale Variations</text>
  <text style="stroke:none;fill:black;font-family:sans-serif;font-size:13;text-anchor:middle;" transform="matrix(1 0 0 1 559.711 322)">Ultralight</text>
  <text style="stroke:none;fill:black;font-family:sans-serif;font-size:13;text-anchor:middle;" transform="matrix(1 0 0 1 856.422 322)">Thin</text>
  <text style="stroke:none;fill:black;font-family:sans-serif;font-size:13;text-anchor:middle;" transform="matrix(1 0 0 1 1153.13 322)">Light</text>
  <text style="stroke:none;fill:black;font-family:sans-serif;font-size:13;text-anchor:middle;" transform="matrix(1 0 0 1 1449.84 322)">Regular</text>
  <text style="stroke:none;fill:black;font-family:sans-serif;font-size:13;text-anchor:middle;" transform="matrix(1 0 0 1 1746.56 322)">Medium</text>
  <text style="stroke:none;fill:black;font-family:sans-serif;font-size:13;text-anchor:middle;" transform="matrix(1 0 0 1 2043.27 322)">Semibold</text>
  <text style="stroke:none;fill:black;font-family:sans-serif;font-size:13;text-anchor:middle;" transform="matrix(1 0 0 1 2339.98 322)">Bold</text>
  <text style="stroke:none;fill:black;font-family:sans-serif;font-size:13;text-anchor:middle;" transform="matrix(1 0 0 1 2636.69 322)">Heavy</text>
  <text style="stroke:none;fill:black;font-family:sans-serif;font-size:13;text-anchor:middle;" transform="matrix(1 0 0 1 2933.4 322)">Black</text>
  <line style="fill:none;stroke:black;opacity:1;stroke-width:0.5;" x1="263" x2="3036" y1="1903" y2="1903"/>
  <g transform="matrix(1 0 0 1 263 1933)">
   <path d="M9.24805 0.830078Q10.8691 0.830078 12.2949 0.214844Q13.7207-0.400391 14.8096-1.49414Q15.8984-2.58789 16.5186-4.01367Q17.1387-5.43945 17.1387-7.05078Q17.1387-8.66211 16.5186-10.0879Q15.8984-11.5137 14.8047-12.6074Q13.7109-13.7012 12.2852-14.3164Q10.8594-14.9316 9.23828-14.9316Q7.62695-14.9316 6.20117-14.3164Q4.77539-13.7012 3.69141-12.6074Q2.60742-11.5137 1.9873-10.0879Q1.36719-8.66211 1.36719-7.05078Q1.36719-5.43945 1.9873-4.01367Q2.60742-2.58789 3.69629-1.49414Q4.78516-0.400391 6.21094 0.214844Q7.63672 0.830078 9.24805 0.830078ZM9.24805-0.654297Q7.91992-0.654297 6.7627-1.14746Q5.60547-1.64062 4.73145-2.51953Q3.85742-3.39844 3.36426-4.56055Q2.87109-5.72266 2.87109-7.05078Q2.87109-8.37891 3.35938-9.54102Q3.84766-10.7031 4.72168-11.582Q5.5957-12.4609 6.75293-12.9541Q7.91016-13.4473 9.23828-13.4473Q10.5762-13.4473 11.7334-12.9541Q12.8906-12.4609 13.7695-11.582Q14.6484-10.7031 15.1465-9.54102Q15.6445-8.37891 15.6445-7.05078Q15.6445-5.72266 15.1514-4.56055Q14.6582-3.39844 13.7842-2.51953Q12.9102-1.64062 11.748-1.14746Q10.5859-0.654297 9.24805-0.654297ZM5.6543-7.05078Q5.6543-6.72852 5.85938-6.52832Q6.06445-6.32812 6.40625-6.32812L8.51562-6.32812L8.51562-4.20898Q8.51562-3.88672 8.71094-3.67676Q8.90625-3.4668 9.23828-3.4668Q9.56055-3.4668 9.77051-3.67676Q9.98047-3.88672 9.98047-4.20898L9.98047-6.32812L12.0898-6.32812Q12.4219-6.32812 12.627-6.52832Q12.832-6.72852 12.832-7.05078Q12.832-7.38281 12.627-7.58789Q12.4219-7.79297 12.0898-7.79297L9.98047-7.79297L9.98047-9.90234Q9.98047-10.2344 9.77051-10.4443Q9.56055-10.6543 9.23828-10.6543Q8.90625-10.6543 8.71094-10.4443Q8.51562-10.2344 8.51562-9.90234L8.51562-7.79297L6.40625-7.79297Q6.06445-7.79297 5.85938-7.58789Q5.6543-7.38281 5.6543-7.05078Z"/>
  </g>
  <g transform="matrix(1 0 0 1 281.867 1933)">
   <path d="M11.709 2.91016Q13.75 2.91016 15.5518 2.12891Q17.3535 1.34766 18.7305-0.0292969Q20.1074-1.40625 20.8887-3.20801Q21.6699-5.00977 21.6699-7.05078Q21.6699-9.0918 20.8887-10.8936Q20.1074-12.6953 18.7305-14.0723Q17.3535-15.4492 15.5469-16.2305Q13.7402-17.0117 11.6992-17.0117Q9.6582-17.0117 7.85645-16.2305Q6.05469-15.4492 4.68262-14.0723Q3.31055-12.6953 2.5293-10.8936Q1.74805-9.0918 1.74805-7.05078Q1.74805-5.00977 2.5293-3.20801Q3.31055-1.40625 4.6875-0.0292969Q6.06445 1.34766 7.86621 2.12891Q9.66797 2.91016 11.709 2.91016ZM11.709 1.25Q9.98047 1.25 8.47656 0.605469Q6.97266-0.0390625 5.83496-1.17676Q4.69727-2.31445 4.05762-3.81836Q3.41797-5.32227 3.41797-7.05078Q3.41797-8.7793 4.05762-10.2832Q4.69727-11.7871 5.83008-12.9297Q6.96289-14.0723 8.4668-14.7119Q9.9707-15.3516 11.6992-15.3516Q13.4277-15.3516 14.9316-14.7119Q16.4355-14.0723 17.5781-12.9297Q18.7207-11.7871 19.3652-10.2832Q20.0098-8.7793 20.0098-7.05078Q20.0098-5.32227 19.3701-3.81836Q18.7305-2.31445 17.5928-1.17676Q16.4551-0.0390625 14.9463 0.605469Q13.4375 1.25 11.709 1.25ZM7.17773-7.05078Q7.17773-6.69922 7.41211-6.47461Q7.64648-6.25 8.01758-6.25L10.8887-6.25L10.8887-3.36914Q10.8887-2.99805 11.1133-2.76855Q11.3379-2.53906 11.6895-2.53906Q12.0605-2.53906 12.29-2.76855Q12.5195-2.99805 12.5195-3.36914L12.5195-6.25L15.4004-6.25Q15.7715-6.25 16.001-6.47461Q16.2305-6.69922 16.2305-7.05078Q16.2305-7.42188 16.001-7.65137Q15.7715-7.88086 15.4004-7.88086L12.5195-7.88086L12.5195-10.752Q12.5195-11.1328 12.29-11.3623Q12.0605-11.5918 11.6895-11.5918Q11.3379-11.5918 11.1133-11.3574Q10.8887-11.123 10.8887-10.752L10.8887-7.88086L8.01758-7.88086Q7.63672-7.88086 7.40723-7.65137Q7.17773-7.42188 7.17773-7.05078Z"/>
  </g>
  <g transform="matrix(1 0 0 1 305.646 1933)">
   <path d="M14.9707 5.66406Q17.0605 5.66406 18.96 5.01465Q20.8594 4.36523 22.4512 3.19336Q24.043 2.02148 25.2197 0.429688Q26.3965-1.16211 27.0459-3.06641Q27.6953-4.9707 27.6953-7.05078Q27.6953-9.14062 27.0459-11.04Q26.3965-12.9395 25.2197-14.5312Q24.043-16.123 22.4512-17.2998Q20.8594-18.4766 18.9551-19.126Q17.0508-19.7754 14.9609-19.7754Q12.8711-19.7754 10.9717-19.126Q9.07227-18.4766 7.48535-17.2998Q5.89844-16.123 4.72168-14.5312Q3.54492-12.9395 2.90039-11.04Q2.25586-9.14062 2.25586-7.05078Q2.25586-4.9707 2.90527-3.06641Q3.55469-1.16211 4.72656 0.429688Q5.89844 2.02148 7.49023 3.19336Q9.08203 4.36523 10.9814 5.01465Q12.8809 5.66406 14.9707 5.66406ZM14.9707 3.84766Q13.1641 3.84766 11.5283 3.2959Q9.89258 2.74414 8.53516 1.74805Q7.17773 0.751953 6.17676-0.610352Q5.17578-1.97266 4.62891-3.6084Q4.08203-5.24414 4.08203-7.05078Q4.08203-8.86719 4.62891-10.5029Q5.17578-12.1387 6.17188-13.501Q7.16797-14.8633 8.52539-15.8594Q9.88281-16.8555 11.5186-17.4023Q13.1543-17.9492 14.9609-17.9492Q16.7773-17.9492 18.4131-17.4023Q20.0488-16.8555 21.4111-15.8594Q22.7734-14.8633 23.7695-13.501Q24.7656-12.1387 25.3174-10.5029Q25.8691-8.86719 25.8691-7.05078Q25.8789-5.24414 25.332-3.6084Q24.7852-1.97266 23.7842-0.610352Q22.7832 0.751953 21.4209 1.74805Q20.0586 2.74414 18.4229 3.2959Q16.7871 3.84766 14.9707 3.84766ZM9.19922-7.05078Q9.19922-6.66992 9.45801-6.4209Q9.7168-6.17188 10.1172-6.17188L14.0625-6.17188L14.0625-2.2168Q14.0625-1.81641 14.3115-1.55762Q14.5605-1.29883 14.9512-1.29883Q15.3516-1.29883 15.6104-1.55273Q15.8691-1.80664 15.8691-2.2168L15.8691-6.17188L19.8242-6.17188Q20.2246-6.17188 20.4785-6.4209Q20.7324-6.66992 20.7324-7.05078Q20.7324-7.46094 20.4785-7.71484Q20.2246-7.96875 19.8242-7.96875L15.8691-7.96875L15.8691-11.9141Q15.8691-12.3242 15.6104-12.583Q15.3516-12.8418 14.9512-12.8418Q14.5605-12.8418 14.3115-12.583Q14.0625-12.3242 14.0625-11.9141L14.0625-7.96875L10.1172-7.96875Q9.70703-7.96875 9.45312-7.71484Q9.19922-7.46094 9.19922-7.05078Z"/>
  </g>
  <text style="stroke:none;fill:black;font-family:sans-serif;font-size:13;font-weight:bold;" transform="matrix(1 0 0 1 263 1953)">Design Variations</text>
  <text style="stroke:none;fill:black;font-family:sans-serif;font-size:13;" transform="matrix(1 0 0 1 263 1971)">Symbols are supported in up to nine weights and three scales.</text>
  <text style="stroke:none;fill:black;font-family:sans-serif;font-size:13;" transform="matrix(1 0 0 1 263 1989)">For optimal layout with text and other symbols, vertically align</text>
  <text style="stroke:none;fill:black;font-family:sans-serif;font-size:13;" transform="matrix(1 0 0 1 263 2007)">symbols with the adjacent text.</text>
  <line style="fill:none;stroke:#00AEEF;stroke-width:0.5;opacity:1.0;" x1="776" x2="776" y1="1919" y2="1933"/>
  <g transform="matrix(1 0 0 1 776 1933)">
   <path d="M3.31055 0.15625Q3.70117 0.15625 3.91602-0.00976562Q4.13086-0.175781 4.26758-0.585938L5.52734-4.0332L11.2891-4.0332L12.5488-0.585938Q12.6855-0.175781 12.9004-0.00976562Q13.1152 0.15625 13.4961 0.15625Q13.8867 0.15625 14.1162-0.0585938Q14.3457-0.273438 14.3457-0.644531Q14.3457-0.869141 14.2383-1.17188L9.6582-13.3691Q9.48242-13.8184 9.17969-14.043Q8.87695-14.2676 8.4082-14.2676Q7.5-14.2676 7.17773-13.3789L2.59766-1.16211Q2.49023-0.859375 2.49023-0.634766Q2.49023-0.263672 2.70996-0.0537109Q2.92969 0.15625 3.31055 0.15625ZM6.00586-5.51758L8.37891-12.0898L8.42773-12.0898L10.8008-5.51758Z"/>
  </g>
  <line style="fill:none;stroke:#00AEEF;stroke-width:0.5;opacity:1.0;" x1="793.197" x2="793.197" y1="1919" y2="1933"/>
  <text style="stroke:none;fill:black;font-family:sans-serif;font-size:13;font-weight:bold;" transform="matrix(1 0 0 1 776 1953)">Margins</text>
  <text style="stroke:none;fill:black;font-family:sans-serif;font-size:13;" transform="matrix(1 0 0 1 776 1971)">Leading and trailing margins on the left and right side of each symbol</text>
  <text style="stroke:none;fill:black;font-family:sans-serif;font-size:13;" transform="matrix(1 0 0 1 776 1989)">can be adjusted by modifying the x-location of the margin guidelines.</text>
  <text style="stroke:none;fill:black;font-family:sans-serif;font-size:13;" transform="matrix(1 0 0 1 776 2007)">Modifications are automatically applied proportionally to all</text>
  <text style="stroke:none;fill:black;font-family:sans-serif;font-size:13;" transform="matrix(1 0 0 1 776 2025)">scales and weights.</text>
  <g transform="matrix(1 0 0 1 1289 1933)">
   <path d="M2.8418 1.86523L4.54102 3.57422Q5.18555 4.22852 5.90332 4.17969Q6.62109 4.13086 7.31445 3.35938L18.0078-8.42773L17.041-9.4043L6.42578 2.27539Q6.16211 2.57812 5.89355 2.61719Q5.625 2.65625 5.27344 2.30469L4.10156 1.14258Q3.75 0.791016 3.79395 0.522461Q3.83789 0.253906 4.14062-0.0195312L15.6152-10.8203L14.6387-11.7871L3.04688-0.898438Q2.30469-0.214844 2.25098 0.498047Q2.19727 1.21094 2.8418 1.86523ZM9.25781-16.3281Q8.94531-16.0254 8.90625-15.6348Q8.86719-15.2441 9.04297-14.9512Q9.21875-14.6777 9.55566-14.541Q9.89258-14.4043 10.3809-14.5215Q11.4746-14.7754 12.5977-14.7314Q13.7207-14.6875 14.7949-13.9844L14.209-12.5293Q13.9551-11.9043 14.0674-11.4404Q14.1797-10.9766 14.5801-10.5664L16.875-8.25195Q17.2363-7.88086 17.5781-7.82227Q17.9199-7.76367 18.3398-7.8418L19.4043-8.03711L20.0684-7.36328L20.0293-6.80664Q20-6.43555 20.1221-6.12305Q20.2441-5.81055 20.6055-5.44922L21.3672-4.70703Q21.7285-4.3457 22.1533-4.33105Q22.5781-4.31641 22.9297-4.66797L25.8398-7.58789Q26.1914-7.93945 26.1816-8.35449Q26.1719-8.76953 25.8105-9.13086L25.0391-9.89258Q24.6875-10.2539 24.3799-10.3857Q24.0723-10.5176 23.7109-10.4883L23.1348-10.4395L22.4902-11.0742L22.7344-12.1973Q22.832-12.6172 22.6953-12.9834Q22.5586-13.3496 22.1191-13.7891L19.9219-15.9766Q18.6719-17.2168 17.2607-17.8369Q15.8496-18.457 14.4189-18.4814Q12.9883-18.5059 11.665-17.959Q10.3418-17.4121 9.25781-16.3281ZM10.752-15.957Q11.6602-16.6211 12.7002-16.9043Q13.7402-17.1875 14.8047-17.085Q15.8691-16.9824 16.8701-16.5137Q17.8711-16.0449 18.7012-15.2051L21.1328-12.793Q21.3086-12.6172 21.3525-12.4512Q21.3965-12.2852 21.3379-12.0312L21.0156-10.5469L22.5195-9.0625L23.5059-9.12109Q23.6914-9.13086 23.7891-9.09668Q23.8867-9.0625 24.0332-8.91602L24.6094-8.33984L22.168-5.89844L21.5918-6.47461Q21.4453-6.62109 21.4062-6.71875Q21.3672-6.81641 21.377-7.01172L21.4453-7.98828L19.9512-9.47266L18.4277-9.21875Q18.1836-9.16992 18.042-9.2041Q17.9004-9.23828 17.7148-9.41406L15.7129-11.416Q15.5176-11.5918 15.4932-11.7529Q15.4688-11.9141 15.5859-12.1875L16.4648-14.2773Q15.293-15.3711 13.8281-15.791Q12.3633-16.2109 10.8398-15.7617Q10.7227-15.7324 10.6885-15.8057Q10.6543-15.8789 10.752-15.957Z"/>
  </g>
  <text style="stroke:none;fill:black;font-family:sans-serif;font-size:13;font-weight:bold;" transform="matrix(1 0 0 1 1289 1953)">Exporting</text>
  <text style="stroke:none;fill:black;font-family:sans-serif;font-size:13;" transform="matrix(1 0 0 1 1289 1971)">Symbols should be outlined when exporting to ensure the</text>
  <text style="stroke:none;fill:black;font-family:sans-serif;font-size:13;" transform="matrix(1 0 0 1 1289 1989)">design is preserved when submitting to Xcode.</text>
  <text id="template-version" style="stroke:none;fill:black;font-family:sans-serif;font-size:13;text-anchor:end;" transform="matrix(1 0 0 1 3036 1933)">Template v.3.0</text>
  <text style="stroke:none;fill:black;font-family:sans-serif;font-size:13;text-anchor:end;" transform="matrix(1 0 0 1 3036 1951)">Requires Xcode 13 or greater</text>
  <text id="descriptive-name" style="stroke:none;fill:black;font-family:sans-serif;font-size:13;text-anchor:end;" transform="matrix(1 0 0 1 3036 1969)">Generated from ant.fill</text>
  <text style="stroke:none;fill:black;font-family:sans-serif;font-size:13;text-anchor:end;" transform="matrix(1 0 0 1 3036 1987)">Typeset at 100 points</text>
  <text style="stroke:none;fill:black;font-family:sans-serif;font-size:13;" transform="matrix(1 0 0 1 263 726)">Small</text>
  <text style="stroke:none;fill:black;font-family:sans-serif;font-size:13;" transform="matrix(1 0 0 1 263 1156)">Medium</text>
  <text style="stroke:none;fill:black;font-family:sans-serif;font-size:13;" transform="matrix(1 0 0 1 263 1586)">Large</text>
 </g>
 <g id="Guides">
  <g id="H-reference" style="fill:#27AAE1;stroke:none;" transform="matrix(1 0 0 1 339 696)">
   <path d="M0.993347 0L3.6377 0L29.3282-67.1326L30.0301-67.1326L30.0301-70.459L28.1227-70.459ZM11.6882-24.4797L46.9818-24.4797L46.2311-26.7288L12.4382-26.7288ZM55.1193 0L57.7637 0L30.6381-70.459L29.4327-70.459L29.4327-67.1326Z"/>
  </g>
  <line id="Baseline-S" style="fill:none;stroke:#27AAE1;opacity:1;stroke-width:0.5;" x1="263" x2="3036" y1="696" y2="696"/>
  <line id="Capline-S" style="fill:none;stroke:#27AAE1;opacity:1;stroke-width:0.5;" x1="263" x2="3036" y1="625.541" y2="625.541"/>
  <g id="H-reference" style="fill:#27AAE1;stroke:none;" transform="matrix(1 0 0 1 339 1126)">
   <path d="M0.993347 0L3.6377 0L29.3282-67.1326L30.0301-67.1326L30.0301-70.459L28.1227-70.459ZM11.6882-24.4797L46.9818-24.4797L46.2311-26.7288L12.4382-26.7288ZM55.1193 0L57.7637 0L30.6381-70.459L29.4327-70.459L29.4327-67.1326Z"/>
  </g>
  <line id="Baseline-M" style="fill:none;stroke:#27AAE1;opacity:1;stroke-width:0.5;" x1="263" x2="3036" y1="1126" y2="1126"/>
  <line id="Capline-M" style="fill:none;stroke:#27AAE1;opacity:1;stroke-width:0.5;" x1="263" x2="3036" y1="1055.54" y2="1055.54"/>
  <g id="H-reference" style="fill:#27AAE1;stroke:none;" transform="matrix(1 0 0 1 339 1556)">
   <path d="M0.993347 0L3.6377 0L29.3282-67.1326L30.0301-67.1326L30.0301-70.459L28.1227-70.459ZM11.6882-24.4797L46.9818-24.4797L46.2311-26.7288L12.4382-26.7288ZM55.1193 0L57.7637 0L30.6381-70.459L29.4327-70.459L29.4327-67.1326Z"/>
  </g>
  <line id="Baseline-L" style="fill:none;stroke:#27AAE1;opacity:1;stroke-width:0.5;" x1="263" x2="3036" y1="1556" y2="1556"/>
  <line id="Capline-L" style="fill:none;stroke:#27AAE1;opacity:1;stroke-width:0.5;" x1="263" x2="3036" y1="1485.54" y2="1485.54"/>
  <line id="left-margin-Ultralight-S" style="fill:none;stroke:#00AEEF;stroke-width:0.5;opacity:1.0;" x1="521.101" x2="521.101" y1="600.785" y2="720.121"/>
  <line id="right-margin-Ultralight-S" style="fill:none;stroke:#00AEEF;stroke-width:0.5;opacity:1.0;" x1="598.321" x2="598.321" y1="600.785" y2="720.121"/>
  <line id="left-margin-Regular-S" style="fill:none;stroke:#00AEEF;stroke-width:0.5;opacity:1.0;" x1="1407.51" x2="1407.51" y1="600.785" y2="720.121"/>
  <line id="right-margin-Regular-S" style="fill:none;stroke:#00AEEF;stroke-width:0.5;opacity:1.0;" x1="1492.18" x2="1492.18" y1="600.785" y2="720.121"/>
  <line id="left-margin-Black-S" style="fill:none;stroke:#00AEEF;stroke-width:0.5;opacity:1.0;" x1="2887.18" x2="2887.18" y1="600.785" y2="720.121"/>
  <line id="right-margin-Black-S" style="fill:none;stroke:#00AEEF;stroke-width:0.5;opacity:1.0;" x1="2979.62" x2="2979.62" y1="600.785" y2="720.121"/>
 </g>
 <g id="Symbols">
  <g id="Black-S" transform="matrix(1 0 0 1 2887.18 696)">
   <path d="M46.1914 12.8418Q50.7324 12.8418 54.7852 10.6445Q58.8379 8.44727 61.9629 4.66309Q65.0879 0.878906 66.8457-3.90625Q68.6035-8.69141 68.6035-13.8672Q68.6035-14.3066 68.6035-14.7217Q68.6035-15.1367 68.5547-15.5273Q68.8477-15.4785 69.0918-15.3809Q69.3359-15.2832 69.5312-15.1855Q71.1426-14.5508 71.6797-13.4766Q72.2168-12.4023 71.9238-10.6934L69.4336 5.61523Q68.9941 8.44727 70.5078 10.0098Q72.0215 11.5723 74.2676 11.5723Q76.709 11.5723 77.9297 10.1562Q79.1504 8.74023 79.4922 6.34766L82.4219-12.6465Q83.2031-17.5781 81.1279-20.4102Q79.0527-23.2422 73.6328-24.4141L56.0059-28.2715L56.0059-28.7109Q56.7383-29.0527 57.3486-29.541Q57.959-30.0293 58.3984-30.6641L71.4355-31.6406Q76.6602-32.0312 79.1504-35.2783Q81.6406-38.5254 81.6406-43.7988L81.6406-56.2988Q81.6406-58.6426 80.2979-59.9609Q78.9551-61.2793 76.6113-61.2793Q71.6797-61.2793 71.6797-56.2988L71.6797-45.9473Q71.6797-43.0664 70.166-41.9434Q68.6523-40.8203 66.1133-40.625L59.5215-40.1367Q58.7402-41.8457 57.3242-42.7734L57.3242-43.2129Q62.7441-44.1895 65.4297-47.3145Q68.1152-50.4395 68.1152-55.2246Q68.1152-58.1055 67.3828-60.8154Q66.6504-63.5254 65.2832-65.918L66.5039-66.748Q70.3125-69.3848 71.0205-72.998Q71.7285-76.6113 69.3359-81.1523L67.2852-85.0586Q65.7227-88.0371 62.9395-88.0371Q61.1816-88.0371 59.9365-86.8164Q58.6914-85.5957 58.6914-83.8867Q58.6914-83.1055 58.8135-82.5439Q58.9355-81.9824 59.375-81.2012L60.9375-78.3691Q61.7676-76.9043 61.4746-75.4395Q61.1816-73.9746 59.7656-72.998Q59.668-72.9492 59.5703-72.8516Q59.4727-72.7539 59.3262-72.6562Q56.5918-74.7559 53.2227-75.9277Q49.8535-77.0996 46.1914-77.0996Q42.5293-77.0996 39.1846-75.9277Q35.8398-74.7559 33.0566-72.6562Q32.959-72.7539 32.8613-72.8516Q32.7637-72.9492 32.6172-72.998Q31.25-73.9746 30.957-75.4395Q30.6641-76.9043 31.4453-78.3691L33.0078-81.2012Q33.4473-81.9824 33.5693-82.5439Q33.6914-83.1055 33.6914-83.8867Q33.6914-85.5957 32.4707-86.8164Q31.25-88.0371 29.4434-88.0371Q26.709-88.0371 25.0977-85.0586L23.0469-81.1523Q20.7031-76.6113 21.3867-72.998Q22.0703-69.3848 25.8789-66.748L27.0996-65.918Q25.7812-63.5254 25.0244-60.8154Q24.2676-58.1055 24.2676-55.2246Q24.2676-50.4395 26.9775-47.3145Q29.6875-44.1895 35.0586-43.2129L35.0586-42.7734Q33.6426-41.8457 32.8613-40.1367L26.2695-40.625Q23.7793-40.8203 22.2412-41.9434Q20.7031-43.0664 20.7031-45.9473L20.7031-56.2988Q20.7031-61.2793 15.7715-61.2793Q13.4277-61.2793 12.085-59.9609Q10.7422-58.6426 10.7422-56.2988L10.7422-43.7988Q10.7422-38.5254 13.2568-35.2783Q15.7715-32.0312 20.9473-31.6406L33.9844-30.6641Q34.4727-30.0293 35.0586-29.541Q35.6445-29.0527 36.377-28.7109L36.377-28.2715L18.75-24.4141Q13.3301-23.2422 11.2793-20.4102Q9.22852-17.5781 9.96094-12.6465L12.8906 6.34766Q13.2812 8.74023 14.502 10.1562Q15.7227 11.5723 18.1152 11.5723Q20.4102 11.5723 21.8994 10.0098Q23.3887 8.44727 22.9492 5.61523L20.459-10.6934Q20.2148-12.5 20.7764-13.5498Q21.3379-14.5996 23.0469-15.2344Q23.2422-15.332 23.4375-15.4053Q23.6328-15.4785 23.8281-15.5273Q23.8281-15.1367 23.8037-14.7217Q23.7793-14.3066 23.7793-13.8672Q23.7793-8.69141 25.5615-3.90625Q27.3438 0.878906 30.4688 4.66309Q33.5938 8.44727 37.6465 10.6445Q41.6992 12.8418 46.1914 12.8418Z"/>
  </g>
  <g id="Regular-S" transform="matrix(1 0 0 1 1407.51 696)">
   <path d="M42.334 9.7168Q46.4355 9.7168 50.0977 7.71484Q53.7598 5.71289 56.5918 2.29492Q59.4238-1.12305 61.0352-5.46875Q62.6465-9.81445 62.6465-14.502Q62.6465-15.6738 62.5-16.6504Q62.3535-17.627 62.1094-18.5059Q62.793-18.3105 63.4766-18.1396Q64.1602-17.9688 64.8438-17.7734Q66.748-17.2363 67.3584-16.4551Q67.9688-15.6738 67.7734-14.1602L65.0391 3.75977Q64.7461 5.61523 65.7227 6.66504Q66.6992 7.71484 68.2129 7.71484Q69.7754 7.71484 70.5811 6.78711Q71.3867 5.85938 71.6309 4.24805L74.707-15.4297Q75.293-18.7988 73.8525-20.7275Q72.4121-22.6562 68.7012-23.4863L50.8301-27.6367L50.7812-28.0273Q51.8555-28.5645 52.6367-29.4922Q53.418-30.4199 53.9062-31.543L66.3574-33.3008Q69.9219-33.8379 71.6064-35.9131Q73.291-37.9883 73.291-41.5527L73.291-54.9805Q73.291-56.543 72.4121-57.3975Q71.5332-58.252 69.9707-58.252Q66.6992-58.252 66.6992-54.9805L66.6992-42.9688Q66.6992-40.9668 65.6738-40.2344Q64.6484-39.502 62.9395-39.2578L54.1016-38.0859Q53.418-39.8926 51.9531-40.8203L51.9531-41.2109Q56.8359-42.0898 59.5215-44.9463Q62.207-47.8027 62.207-52.1484Q62.207-55.6152 61.0596-58.7646Q59.9121-61.9141 57.9102-64.4531L58.1543-64.5996Q60.9863-66.6016 61.5723-69.5801Q62.1582-72.5586 60.4004-75.8789L58.6426-79.0039Q57.5195-81.1523 55.5664-81.1523Q54.1992-81.1523 53.3203-80.2979Q52.4414-79.4434 52.4414-78.1738Q52.4414-77.5879 52.5391-77.1729Q52.6367-76.7578 52.9785-76.1719L54.3457-73.8281Q55.1758-72.3633 55.127-71.1426Q55.0781-69.9219 54.0527-68.9941Q53.9062-68.8477 53.7842-68.7744Q53.6621-68.7012 53.5156-68.5547Q51.123-70.2148 48.2666-71.1182Q45.4102-72.0215 42.334-72.0215Q39.2578-72.0215 36.4502-71.1182Q33.6426-70.2148 31.25-68.6035Q31.1523-68.7012 31.0059-68.7988Q30.8594-68.8965 30.7617-69.043Q29.7363-69.9219 29.6875-71.1426Q29.6387-72.3633 30.4688-73.8281L31.8359-76.1719Q32.1777-76.7578 32.2754-77.1729Q32.373-77.5879 32.373-78.1738Q32.373-79.4434 31.4941-80.2979Q30.6152-81.1523 29.2969-81.1523Q27.3438-81.1523 26.1719-79.0039L24.4629-75.8789Q22.6562-72.5586 23.2666-69.5801Q23.877-66.6016 26.709-64.5996L26.8555-64.502Q24.8047-61.9629 23.6084-58.8135Q22.4121-55.6641 22.4121-52.1484Q22.4121-47.8027 25.0977-44.9463Q27.7832-42.0898 32.7148-41.2109L32.7148-40.8203Q31.25-39.8926 30.5176-38.0859L21.7285-39.2578Q19.9707-39.502 18.9697-40.2344Q17.9688-40.9668 17.9688-42.9688L17.9688-54.9805Q17.9688-58.252 14.6484-58.252Q13.0859-58.252 12.2314-57.3975Q11.377-56.543 11.377-54.9805L11.377-41.5527Q11.377-37.9883 13.0615-35.9131Q14.7461-33.8379 18.3105-33.3008L30.7617-31.543Q31.2012-30.4199 31.9824-29.4922Q32.7637-28.5645 33.8867-28.0273L33.8867-27.6367L15.918-23.4863Q12.207-22.6562 10.791-20.7275Q9.375-18.7988 9.91211-15.4297L12.9883 4.24805Q13.2324 5.85938 14.0381 6.78711Q14.8438 7.71484 16.4551 7.71484Q17.9688 7.71484 18.9209 6.66504Q19.873 5.61523 19.5801 3.75977L16.8945-14.1602Q16.6504-15.6738 17.2852-16.4551Q17.9199-17.2363 19.8242-17.7734Q20.459-17.9688 21.167-18.1396Q21.875-18.3105 22.5098-18.5059Q22.2656-17.627 22.1191-16.6504Q21.9727-15.6738 21.9727-14.502Q21.9727-9.81445 23.6084-5.46875Q25.2441-1.12305 28.0518 2.29492Q30.8594 5.71289 34.5459 7.71484Q38.2324 9.7168 42.334 9.7168Z"/>
  </g>
  <g id="Ultralight-S" transform="matrix(1 0 0 1 521.101 696)">
   <path d="M38.6101 9.7168Q42.4393 9.7168 46.0106 7.78313Q49.5819 5.84946 52.3914 2.49939Q55.201-0.850677 56.8577-5.1281Q58.5144-9.40552 58.5144-14.093Q58.5144-17.0364 57.732-19.3069Q56.9496-21.5775 55.3886-23.2285Q56.8443-22.8966 58.2771-22.5441Q59.7099-22.1916 61.1656-21.8147Q63.4789-21.2326 64.3841-19.7475Q65.2893-18.2625 64.8216-15.7494L61.5883 4.53186Q61.5219 5.11551 61.8855 5.48439Q62.249 5.85327 62.809 5.85327Q63.4178 5.85327 63.6787 5.53856Q63.9397 5.22385 64.0472 4.56619L67.305-16.0652Q67.8459-19.4344 66.428-21.386Q65.0101-23.3376 61.3449-24.2126L47.0612-27.6367L47.0573-28.0273Q48.9037-28.8826 49.8665-30.7865Q50.8293-32.6904 50.8636-34.7672L59.4101-35.8894Q63.1104-36.4265 64.727-38.0703Q66.3437-39.7141 66.3437-43.0511L66.3437-55.5252Q66.3437-56.1798 66.0095-56.4892Q65.6754-56.7986 65.1115-56.7986Q63.8382-56.7986 63.8382-55.5252L63.8382-43.3777Q63.8382-41.0126 62.7903-39.8487Q61.7424-38.6848 59.2155-38.3499L50.6958-37.0872Q50.058-39.6202 48.2292-40.8203L48.2292-41.2109Q53.1578-42.0898 55.6164-44.9463Q58.075-47.8027 58.075-52.1484Q58.075-56.7047 56.1329-60.6716Q54.1908-64.6385 50.9628-67.3592L51.7517-68.0504Q54.3114-70.1439 54.3976-72.4182Q54.4838-74.6925 52.4994-77.2865L47.8806-83.3176Q47.348-84.0134 46.7117-84.0134Q46.2524-84.0134 45.9412-83.749Q45.6299-83.4846 45.6299-82.9872Q45.6299-82.7644 45.705-82.531Q45.7802-82.2975 46.0762-81.9847L50.8492-75.8263Q52.1332-74.1341 52.1526-72.6185Q52.1721-71.1029 50.3288-69.6297Q50.0465-69.4382 49.7654-69.2059Q49.4843-68.9735 49.202-68.7363Q46.9002-70.3056 44.2024-71.1636Q41.5047-72.0215 38.6101-72.0215Q35.7613-72.0215 33.0673-71.1636Q30.3734-70.3056 28.0258-68.7401Q27.7466-68.9735 27.4639-69.2074Q27.1812-69.4412 26.902-69.6335Q25.0587-71.1029 25.0782-72.6185Q25.0977-74.1341 26.3817-75.8263L31.2004-81.9847Q31.4514-82.2975 31.5262-82.531Q31.601-82.7644 31.601-82.9872Q31.601-83.4846 31.2897-83.749Q30.9784-84.0134 30.5229-84.0134Q29.8866-84.0134 29.3503-83.3176L24.7353-77.2865Q22.747-74.6925 22.8352-72.4182Q22.9233-70.1439 25.4829-68.0504L26.3107-67.363Q23.0789-64.6423 21.1109-60.6754Q19.1429-56.7085 19.1429-52.1484Q19.1429-47.8027 21.624-44.9463Q24.1051-42.0898 28.9909-41.2109L28.9909-40.8203Q27.1629-39.6202 26.5213-37.0872L18.0046-38.3499Q15.4755-38.6848 14.4291-39.8487Q13.3827-41.0126 13.3827-43.3777L13.3827-55.5252Q13.3827-56.7986 12.1506-56.7986Q11.5417-56.7986 11.2324-56.4892Q10.923-56.1798 10.923-55.5252L10.923-43.0511Q10.923-39.7141 12.5168-38.0703Q14.1106-36.4265 17.8566-35.8894L26.3573-34.7672Q26.3878-32.6904 27.3506-30.7865Q28.3134-28.8826 30.1628-28.0273L30.1628-27.6367L15.8722-24.2126Q12.2528-23.3376 10.8139-21.386Q9.375-19.4344 9.91211-16.0652L13.1699 4.56619Q13.2782 5.22385 13.5387 5.53856Q13.7993 5.85327 14.4119 5.85327Q14.9719 5.85327 15.3336 5.48439Q15.6952 5.11551 15.6296 4.53186L12.3993-15.7494Q11.9728-18.2625 12.8574-19.7475Q13.7421-21.2326 16.0553-21.8147Q17.5072-22.1916 18.9419-22.5441Q20.3766-22.8966 21.8742-23.2285Q20.2675-21.5775 19.4855-19.3069Q18.7035-17.0364 18.7035-14.093Q18.7035-9.40552 20.3617-5.1281Q22.02-0.850677 24.8505 2.49939Q27.681 5.84946 31.2313 7.78313Q34.7816 9.7168 38.6101 9.7168Z"/>
  </g>
 </g>
</svg>
